<svg xmlns="http://www.w3.org/2000/svg" width="1920" height="330" fill="none"><g filter="url(#a)"><path fill="#810003" d="M-123.011 48.716 2180.2 199.78l-4.777 72.844L-127.79 121.56z"/><path fill="#fff" d="m-53.1 108.787-4.486-.244-3.822-.208-3.134-.17.255-4.702.283-5.195.569-10.477.292-5.367.264-4.873 6.14.334 6.892.374q3.413.186 5.618.822 2.205.615 3.444 1.608 1.26.995 1.727 2.29.468 1.297.384 2.842-.106 1.954-.936 3.351a6.65 6.65 0 0 1-2.168 2.25 8.1 8.1 0 0 1-2.967 1.11l-.034.623q1.95.558 3.32 1.515a5.8 5.8 0 0 1 2.062 2.48q.672 1.5.551 3.712-.107 1.976-.817 3.552-.71 1.554-2.295 2.61-1.586 1.055-4.303 1.531-2.716.456-6.838.232m-2.407-6.418 3.585.194q1.245.069 2.101-.23.878-.297 1.324-.983.468-.685.525-1.737.084-1.524-.775-2.368-.86-.843-2.64-.94l-5.883-.32.31-5.689 5.41.294q1.137.063 1.93-.26.794-.345 1.217-1.011.447-.687.5-1.674.08-1.46-.649-2.318-.707-.855-2.317-.944l-3.65-.198-.148 2.726-.177 3.264-.362 6.655-.164 3.027zm19.834 7.365.256-4.702.282-5.195.568-10.455.293-5.389.265-4.873 8.866.482-.264 4.873-.293 5.389-.49 9.016q-.158 2.898-.282 5.196l-.256 4.701-2.667-6.389 6.204.337 3.671.2 2.941.159 2.791.152-.416 7.664zm23.335 1.268 1.87-5.088a425 425 0 0 1 1.89-5.086l3.814-10.344a1120 1120 0 0 1 1.869-5.066q.832-2.237 1.666-4.517l11.314.615q.62 2.467 1.183 4.78.585 2.313 1.293 5.13l2.649 10.694q.657 2.577 1.326 5.305.692 2.728 1.31 5.217l-9.145-.497q-.434-2.328-.903-4.786a240 240 0 0 0-.89-4.635L4.253 88.606l-.622-.034-4.226 13.572q-.681 2.225-1.437 4.659-.757 2.435-1.46 4.679zm8.637-5.215 1.344-6.495 12.645.688.438 6.591zm38.585 8.405q-3.778-.206-6.766-1.487-2.967-1.281-5-3.48t-3.013-5.181q-.979-2.98-.782-6.61.249-4.594 2.293-8.121t5.699-5.418q3.657-1.912 8.766-1.634 1.46.08 2.888.35 1.45.252 2.785.647 1.337.375 2.495.847 1.18.45 2.078.995l-1.066 8.124q-1.617-1.164-3.127-1.892a15.7 15.7 0 0 0-2.846-1.124 12 12 0 0 0-2.56-.44q-2.21-.12-4.003.751-1.789.85-2.903 2.706-1.113 1.855-1.267 4.69a10.7 10.7 0 0 0 .335 3.355 8.1 8.1 0 0 0 1.395 2.854q.986 1.259 2.537 2.054 1.551.773 3.698.89.945.051 1.94-.024a15 15 0 0 0 2.02-.342 11 11 0 0 0 2.064-.728q1.06-.48 2.153-1.196l-.008 8.074q-.948.422-2.106.725a17 17 0 0 1-2.436.449 24 24 0 0 1-2.595.203q-1.336.035-2.668-.037m31.125 1.067a305 305 0 0 0-1.82-3.759 434 434 0 0 1-1.662-3.493l-2.75-5.64-1.911-.103.373-6.87 1.782.096 3.053-4.27q1.094-1.511 2.166-3.025 1.095-1.512 2.519-3.545l10.047.546q-1.892 2.31-3.737 4.577l-3.693 4.558-4.71 5.837.02-3.918 4.452 8.015a299 299 0 0 1 2.218 3.954q1.176 2.13 2.295 4.129a265 265 0 0 1 1.92 3.485zm-17.024-.925.255-4.702.282-5.195.569-10.455.292-5.389.265-4.873 8.824.48-.265 4.873-.293 5.389-.568 10.455q-.158 2.898-.282 5.195l-.256 4.701zm37.087 2.015 1.87-5.087a432 432 0 0 1 1.891-5.087l3.814-10.343q1.036-2.83 1.868-5.066.832-2.237 1.667-4.517l11.314.615q.62 2.466 1.183 4.78l1.293 5.13 2.648 10.694q.657 2.577 1.327 5.304.691 2.73 1.31 5.218l-9.146-.497q-.434-2.328-.902-4.786a235 235 0 0 0-.89-4.635l-2.656-14.118-.623-.034-4.225 13.572q-.68 2.223-1.438 4.659a2080 2080 0 0 1-1.46 4.679zm8.638-5.215 1.343-6.494 12.645.687.439 6.591zm24.676 7.026.255-4.702.283-5.195.568-10.455.292-5.389.265-4.873 7.643.415 3.117 5.25a891 891 0 0 1 2.9 4.874l3.73 6.253.622.034.301-5.539.293-5.388.265-4.874 8.265.45-.265 4.873-.292 5.388-.568 10.455-.283 5.196-.255 4.701-7.557-.41a3170 3170 0 0 0-2.865-4.742q-1.46-2.448-3.176-5.341l-3.812-6.322-.601-.032-.322 5.925-.282 5.195-.256 4.702zm47.327 3.196q-3.778-.206-6.766-1.488-2.966-1.28-5-3.479-2.034-2.2-3.013-5.181-.98-2.982-.782-6.61.25-4.594 2.293-8.122t5.699-5.418q3.657-1.91 8.766-1.633 1.46.08 2.888.35 1.45.252 2.785.647 1.337.374 2.495.846 1.181.452 2.077.996l-1.065 8.124q-1.617-1.164-3.127-1.892a15.7 15.7 0 0 0-2.846-1.124 12 12 0 0 0-2.56-.44q-2.21-.12-4.003.75-1.79.851-2.903 2.707t-1.267 4.689q-.094 1.74.335 3.356a8.1 8.1 0 0 0 1.395 2.853q.987 1.26 2.537 2.055 1.551.773 3.698.89.945.051 1.939-.024a15 15 0 0 0 2.021-.343 11 11 0 0 0 2.064-.727 16 16 0 0 0 2.153-1.197l-.008 8.074q-.948.423-2.106.726a17.5 17.5 0 0 1-2.436.449q-1.258.168-2.595.203t-2.668-.037m29.159 1.584q-4.272-.231-7.295-1.666-3.021-1.457-4.875-3.797a14.9 14.9 0 0 1-2.621-5.267 19 19 0 0 1-.619-6.041q.243-4.465 2.179-7.999 1.957-3.532 5.617-5.486 3.68-1.954 9.133-1.657 4.143.225 7.124 1.636t4.859 3.709a14.3 14.3 0 0 1 2.707 5.25q.83 2.952.651 6.258-.25 4.594-2.249 8.103-1.999 3.488-5.675 5.376-3.676 1.868-8.936 1.581m.284-7.197q1.695.092 2.999-.526a6.46 6.46 0 0 0 2.25-1.773 8.7 8.7 0 0 0 1.461-2.72q.537-1.564.634-3.346.1-1.846-.307-3.461-.384-1.636-1.222-2.866a6.2 6.2 0 0 0-2.046-1.984q-1.23-.734-2.819-.821-1.653-.09-2.978.527-1.325.595-2.27 1.75t-1.505 2.739a11.8 11.8 0 0 0-.657 3.366 12.3 12.3 0 0 0 .268 3.395 9.3 9.3 0 0 0 1.158 2.862 6.4 6.4 0 0 0 2.065 2.007q1.272.758 2.969.851m19.522 7.649.256-4.701.282-5.196.569-10.476.292-5.367.265-4.874 3.542.193 4.401.239 4.594.25q3.886.21 6.568 1.175 2.683.963 4.012 3.038 1.33 2.076 1.139 5.596-.15 2.748-1.356 4.749-1.187 2.003-3.546 3.037-2.36 1.035-5.988.838l3.701-2.727 3.463 6.41q.801 1.486 1.7 3.172a318 318 0 0 1 1.78 3.305 640 640 0 0 0 1.527 2.817l-9.983-.542a399 399 0 0 0-1.689-3.386 428 428 0 0 0-1.573-3.165l-4.125-8.471 5.024 3.826-7.171-.39.31-5.689 4.723.257q1.159.063 2.034-.191a2.45 2.45 0 0 0 1.37-1.045q.517-.79.596-2.25.054-.987-.169-1.646a2.65 2.65 0 0 0-.671-1.113 2.8 2.8 0 0 0-1.042-.638 4.6 4.6 0 0 0-1.258-.24l-9.939-.54 6.643-4.98-.267 4.917-.29 5.346-.491 9.038-.283 5.195-.255 4.702zm30.19 1.641.256-4.702.282-5.195.569-10.477.292-5.367.265-4.873 21.082 1.145-.384 7.064-4.058-.221-5.066-.275-6.956-.378 3.978-5.447-.265 4.873-.293 5.389-.413 7.6-.282 5.195-.257 4.723-2.806-5.815 6.999.38 4.594.25 4.165.226-.384 7.063zm7.295-11.812.349-6.419 5.41.294 4.68.254 3.779.205-.349 6.419-8.48-.461zM371.209 136.616l-4.487-.244-6.956-.378.256-4.701.282-5.195.57-10.477.291-5.367.265-4.873 13.031.708q3.414.185 5.618.822 2.207.615 3.444 1.608 1.26.994 1.728 2.29t.383 2.842q-.105 1.953-.935 3.351a6.65 6.65 0 0 1-2.168 2.25 8.1 8.1 0 0 1-2.967 1.11l-.034.622q1.95.558 3.32 1.516a5.8 5.8 0 0 1 2.061 2.48q.672 1.5.552 3.712-.108 1.975-.817 3.551-.71 1.556-2.295 2.61-1.587 1.055-4.304 1.532-2.716.455-6.838.231m-2.407-6.418 3.585.195q1.245.067 2.101-.23.877-.297 1.324-.984.468-.684.525-1.737.083-1.524-.776-2.367-.858-.844-2.64-.94l-5.882-.32.309-5.689 5.41.294q1.137.061 1.93-.261.793-.345 1.218-1.011.446-.686.5-1.673.079-1.46-.649-2.318-.708-.857-2.318-.944l-3.649-.199-.148 2.727-.178 3.263-.361 6.655-.165 3.027zm19.834 7.365.255-4.701.283-5.196.568-10.455.293-5.388.265-4.874 8.866.482-.265 4.873-.293 5.389-.49 9.017-.282 5.195-.255 4.702-2.668-6.39 6.205.338 3.671.199 2.941.16 2.791.152-.417 7.664zm23.334 1.268 1.87-5.087a440 440 0 0 1 1.891-5.087l3.814-10.343q1.037-2.83 1.868-5.066a883 883 0 0 0 1.667-4.517l11.314.614q.62 2.467 1.183 4.78.585 2.315 1.293 5.13l2.648 10.695q.657 2.576 1.327 5.304.692 2.73 1.31 5.217l-9.146-.497q-.433-2.327-.902-4.786a237 237 0 0 0-.89-4.634l-2.656-14.119-.623-.033-4.225 13.572q-.68 2.223-1.438 4.659-.756 2.435-1.46 4.679zm8.638-5.215 1.343-6.494 12.645.687.439 6.591zm38.585 8.406q-3.779-.206-6.767-1.488-2.966-1.281-5-3.48t-3.012-5.18q-.98-2.982-.782-6.61.249-4.594 2.293-8.122t5.698-5.418q3.657-1.911 8.767-1.633 1.46.078 2.887.35 1.45.251 2.786.647 1.336.373 2.495.846 1.181.451 2.077.996l-1.066 8.124q-1.616-1.164-3.127-1.893a15.6 15.6 0 0 0-2.845-1.123 12 12 0 0 0-2.56-.441q-2.212-.12-4.003.752-1.79.849-2.903 2.706-1.113 1.855-1.267 4.689-.094 1.74.335 3.356a8.1 8.1 0 0 0 1.395 2.853q.986 1.26 2.537 2.054 1.55.774 3.698.89a15 15 0 0 0 1.939-.023 15 15 0 0 0 2.021-.343 11 11 0 0 0 2.063-.727q1.06-.482 2.154-1.197l-.008 8.074q-.95.422-2.107.726-1.156.302-2.436.449-1.257.168-2.594.203a33 33 0 0 1-2.668-.037m31.125 1.067a305 305 0 0 0-1.82-3.76 402 402 0 0 1-1.662-3.492l-2.751-5.64-1.911-.104.374-6.87 1.782.097 3.052-4.27q1.095-1.512 2.167-3.025 1.095-1.513 2.518-3.546l10.047.546q-1.89 2.31-3.737 4.577l-3.692 4.558-4.71 5.838.019-3.918 4.452 8.015a306 306 0 0 1 2.219 3.953 861 861 0 0 0 2.294 4.13 260 260 0 0 1 1.921 3.485zm-17.025-.925.256-4.702.282-5.195.568-10.455.293-5.389.265-4.873 8.823.479-.264 4.873-.293 5.389-.568 10.455-.283 5.195-.255 4.702zm37.088 2.015 1.87-5.088a422 422 0 0 1 1.891-5.086l3.813-10.343a1061 1061 0 0 1 1.869-5.066 883 883 0 0 0 1.666-4.518l11.314.615a666 666 0 0 1 1.183 4.78q.585 2.314 1.293 5.13l2.649 10.695q.657 2.576 1.326 5.304.692 2.728 1.31 5.217l-9.145-.497q-.433-2.327-.903-4.786a237 237 0 0 0-.889-4.634l-2.657-14.119-.622-.034-4.226 13.572q-.681 2.225-1.437 4.659-.757 2.435-1.46 4.68zm8.638-5.215 1.343-6.494 12.645.687.438 6.591zm24.675 7.025.256-4.701.282-5.196.568-10.455.293-5.388.265-4.874 7.643.416 3.116 5.25a880 880 0 0 1 2.901 4.874l3.729 6.253.623.033.301-5.538.293-5.389.265-4.873 8.265.449-.265 4.873-.293 5.389-.568 10.455-.282 5.195-.256 4.702-7.557-.411q-1.382-2.293-2.864-4.742a2471 2471 0 0 1-3.176-5.34l-3.812-6.322-.602-.033-.322 5.925-.537 9.897zm47.328 3.196q-3.779-.205-6.767-1.487-2.966-1.281-5-3.48t-3.013-5.181q-.978-2.98-.782-6.609.25-4.594 2.294-8.122t5.698-5.418q3.657-1.911 8.766-1.634 1.46.08 2.888.351 1.45.25 2.786.647 1.336.373 2.495.846 1.181.452 2.077.995l-1.066 8.124q-1.616-1.164-3.127-1.892a15.7 15.7 0 0 0-2.845-1.124 12 12 0 0 0-2.56-.44q-2.212-.12-4.003.751-1.79.85-2.903 2.706-1.113 1.857-1.267 4.69a10.8 10.8 0 0 0 .334 3.356 8.1 8.1 0 0 0 1.396 2.853q.986 1.26 2.536 2.054 1.552.774 3.699.89.944.051 1.939-.024a15 15 0 0 0 2.021-.342 11 11 0 0 0 2.063-.728q1.06-.48 2.154-1.196l-.008 8.074q-.95.422-2.107.725a17 17 0 0 1-2.436.449q-1.257.168-2.594.204-1.338.035-2.668-.038m29.159 1.585q-4.272-.233-7.295-1.667-3.022-1.456-4.875-3.796a14.9 14.9 0 0 1-2.621-5.267 19 19 0 0 1-.619-6.041q.243-4.465 2.179-7.999 1.957-3.532 5.616-5.487 3.68-1.953 9.134-1.657 4.143.226 7.124 1.636 2.98 1.411 4.858 3.709t2.708 5.25.65 6.258q-.25 4.594-2.249 8.103-1.998 3.488-5.675 5.376-3.676 1.867-8.935 1.582m.283-7.198q1.696.093 3-.526a6.5 6.5 0 0 0 2.25-1.772 8.7 8.7 0 0 0 1.461-2.72q.537-1.564.634-3.346.1-1.846-.307-3.462-.385-1.636-1.223-2.865a6.24 6.24 0 0 0-2.045-1.985q-1.23-.734-2.819-.821-1.653-.09-2.979.528a6.2 6.2 0 0 0-2.269 1.75q-.947 1.154-1.506 2.738a11.9 11.9 0 0 0-.656 3.367 12.3 12.3 0 0 0 .267 3.395 9.3 9.3 0 0 0 1.158 2.862 6.4 6.4 0 0 0 2.066 2.007q1.272.758 2.968.85m19.523 7.65.255-4.702.283-5.195.569-10.477.292-5.367.264-4.873 3.543.192 4.401.24 4.594.249q3.886.212 6.568 1.175 2.682.965 4.012 3.039t1.138 5.595q-.149 2.748-1.356 4.75-1.185 2.002-3.545 3.037t-5.989.837l3.701-2.727 3.463 6.411q.802 1.487 1.701 3.171a329 329 0 0 1 1.78 3.305 655 655 0 0 0 1.526 2.818l-9.983-.543a384 384 0 0 0-1.689-3.386 471 471 0 0 0-1.572-3.164l-4.126-8.471 5.024 3.826-7.17-.39.309-5.689 4.723.257q1.16.063 2.035-.191a2.46 2.46 0 0 0 1.37-1.046q.516-.789.596-2.25.053-.987-.169-1.645a2.66 2.66 0 0 0-.672-1.113 2.8 2.8 0 0 0-1.042-.638 4.6 4.6 0 0 0-1.257-.241l-9.94-.54 6.644-4.979-.267 4.917-.291 5.345-.491 9.038-.282 5.196-.256 4.701zm30.19 1.64.537-9.897.57-10.476.291-5.367.265-4.874 21.082 1.146-.384 7.063-4.057-.22-5.067-.276-6.955-.378 3.977-5.446-.557 10.261-.413 7.6-.282 5.196-.257 4.723-2.806-5.816 6.998.381 4.595.249 4.165.227-.384 7.063zm7.295-11.812.349-6.419 5.41.294 4.68.254 3.778.206-.349 6.419-3.864-.21-4.616-.251zM795.517 164.446l-4.487-.244-3.822-.208-3.134-.17.256-4.702.282-5.195.569-10.476.292-5.368.265-4.873 6.14.334 6.891.374q3.413.186 5.618.822 2.207.615 3.444 1.609 1.259.993 1.727 2.29.468 1.295.384 2.841-.107 1.954-.936 3.351a6.65 6.65 0 0 1-2.167 2.251 8.2 8.2 0 0 1-2.968 1.109l-.033.623q1.95.558 3.319 1.515a5.8 5.8 0 0 1 2.062 2.481q.672 1.5.552 3.711-.108 1.976-.818 3.552-.708 1.554-2.295 2.61t-4.303 1.531q-2.716.456-6.838.232m-2.408-6.418 3.586.194q1.245.069 2.101-.23.877-.297 1.323-.983.468-.686.526-1.737.082-1.524-.776-2.368-.859-.843-2.641-.94l-5.882-.319.309-5.69 5.41.294q1.138.063 1.931-.261.794-.344 1.217-1.01.447-.687.5-1.674.08-1.46-.649-2.318-.706-.856-2.317-.944l-3.65-.198-.148 2.726-.177 3.264-.362 6.655-.164 3.027zm19.835 7.365.255-4.702.282-5.195.569-10.455.292-5.389.265-4.873 8.867.482-.265 4.873-.293 5.389-.49 9.016-.282 5.196-.256 4.701-2.667-6.389 6.204.337 3.671.2 2.942.159 2.79.152-.416 7.664zm23.334 1.268 1.87-5.088a439 439 0 0 1 1.891-5.086l3.813-10.344q1.036-2.828 1.869-5.066.832-2.237 1.667-4.517l11.313.615q.62 2.466 1.183 4.78.585 2.314 1.293 5.13l2.649 10.694q.657 2.577 1.327 5.305.691 2.728 1.309 5.217l-9.145-.497q-.434-2.328-.903-4.786a239 239 0 0 0-.889-4.635l-2.656-14.118-.623-.034-4.226 13.572q-.68 2.225-1.437 4.659-.757 2.435-1.46 4.679zm8.638-5.215 1.343-6.494 12.645.687.438 6.591zm38.584 8.405q-3.778-.205-6.766-1.487-2.966-1.281-5-3.48t-3.013-5.181-.782-6.609q.25-4.594 2.293-8.122t5.699-5.418q3.657-1.911 8.766-1.634 1.46.08 2.888.351a25 25 0 0 1 2.785.646q1.337.375 2.495.847 1.181.452 2.078.995l-1.066 8.124q-1.617-1.164-3.127-1.892a15.7 15.7 0 0 0-2.846-1.124 12 12 0 0 0-2.56-.44q-2.211-.12-4.002.751-1.791.85-2.903 2.706t-1.267 4.69a10.7 10.7 0 0 0 .334 3.355 8.1 8.1 0 0 0 1.395 2.854q.987 1.259 2.537 2.054 1.551.774 3.698.89.945.051 1.939-.024a15 15 0 0 0 2.021-.342 11 11 0 0 0 2.064-.728q1.059-.48 2.154-1.196l-.009 8.074q-.948.422-2.106.725t-2.436.449q-1.259.168-2.595.204-1.336.034-2.668-.038m31.125 1.067a313 313 0 0 0-1.819-3.759 402 402 0 0 1-1.662-3.492l-2.751-5.641-1.911-.103.373-6.87 1.782.097 3.053-4.27a386 386 0 0 0 2.167-3.026q1.093-1.512 2.518-3.545l10.047.546a1889 1889 0 0 0-3.737 4.577l-3.693 4.558-4.709 5.837.019-3.917 4.452 8.014a295 295 0 0 1 2.218 3.954q1.176 2.13 2.295 4.129a267 267 0 0 1 1.921 3.485zm-17.024-.925.255-4.702.283-5.195.568-10.455.293-5.388.264-4.874 8.824.48-.265 4.873-.293 5.389-.568 10.455-.282 5.195-.256 4.702zm37.087 2.015 1.87-5.087a421 421 0 0 1 1.892-5.087l3.813-10.343a1103 1103 0 0 1 1.869-5.066q.831-2.237 1.666-4.517l11.314.615a708 708 0 0 1 1.183 4.779q.585 2.314 1.293 5.131l2.648 10.694q.657 2.577 1.327 5.304.692 2.73 1.31 5.218l-9.146-.497a935 935 0 0 0-.902-4.786 237 237 0 0 0-.89-4.635l-2.656-14.118-.622-.034-4.226 13.572q-.68 2.225-1.438 4.659-.756 2.435-1.46 4.679zm8.638-5.215 1.344-6.494 12.644.687.439 6.591zm24.676 7.026.255-4.702.283-5.195.568-10.455.293-5.389.265-4.873 7.642.415 3.117 5.251a821 821 0 0 1 2.9 4.873l3.73 6.253.623.034.301-5.539.292-5.388.265-4.874 8.265.449-.264 4.874-.293 5.388-.568 10.455-.283 5.196-.255 4.701-7.557-.41q-1.383-2.294-2.864-4.742-1.461-2.448-3.177-5.341l-3.812-6.322-.601-.032-.322 5.925-.282 5.195-.256 4.702zm47.328 3.196c-2.52-.137-4.78-.633-6.77-1.487-1.97-.854-3.64-2.014-5-3.48-1.35-1.466-2.36-3.193-3.01-5.181q-.979-2.982-.782-6.61.251-4.594 2.292-8.122t5.7-5.417c2.44-1.275 5.36-1.819 8.77-1.634q1.455.08 2.88.35 1.455.252 2.79.647 1.335.374 2.49.846c.79.301 1.48.633 2.08.996l-1.06 8.124c-1.08-.776-2.12-1.407-3.13-1.892q-1.485-.749-2.85-1.124c-.9-.25-1.76-.397-2.56-.441-1.47-.08-2.81.171-4 .752-1.19.567-2.16 1.469-2.9 2.706s-1.17 2.8-1.27 4.69c-.06 1.159.05 2.277.34 3.355a8 8 0 0 0 1.39 2.854c.66.839 1.5 1.524 2.54 2.054 1.03.515 2.26.812 3.7.89.62.034 1.27.026 1.93-.024.67-.065 1.34-.179 2.03-.342.68-.164 1.37-.407 2.06-.728.71-.321 1.42-.719 2.15-1.197l-.01 8.074q-.945.423-2.1.726c-.77.202-1.59.351-2.44.449-.84.112-1.7.18-2.59.203q-1.335.035-2.67-.037m29.16 1.584c-2.85-.154-5.28-.71-7.3-1.666-2.01-.971-3.64-2.236-4.87-3.796a14.8 14.8 0 0 1-2.62-5.267c-.53-1.938-.73-3.952-.62-6.041.16-2.977.89-5.644 2.18-8q1.95-3.531 5.61-5.486c2.46-1.302 5.5-1.855 9.14-1.657 2.76.15 5.13.695 7.12 1.636q2.985 1.41 4.86 3.709c1.25 1.532 2.15 3.282 2.71 5.25.55 1.968.77 4.054.65 6.258q-.255 4.594-2.25 8.103c-1.33 2.325-3.22 4.117-5.68 5.376-2.45 1.245-5.43 1.772-8.93 1.581m.28-7.197q1.695.092 3-.526a6.45 6.45 0 0 0 2.25-1.773 8.6 8.6 0 0 0 1.46-2.72c.36-1.042.57-2.158.64-3.346.06-1.23-.04-2.384-.31-3.461-.26-1.091-.66-2.046-1.22-2.866a6.3 6.3 0 0 0-2.05-1.984q-1.23-.734-2.82-.821c-1.1-.06-2.09.116-2.98.527-.88.397-1.64.98-2.27 1.75q-.945 1.155-1.5 2.739a12.1 12.1 0 0 0-.66 3.366q-.09 1.782.27 3.395a9.2 9.2 0 0 0 1.16 2.862 6.4 6.4 0 0 0 2.06 2.007q1.275.758 2.97.851m19.52 7.649c.09-1.617.18-3.184.26-4.701.08-1.532.18-3.263.28-5.196l.57-10.476c.11-2.004.21-3.793.29-5.367q.135-2.383.27-4.874l3.54.193 4.4.239 4.6.25c2.59.14 4.78.532 6.56 1.175q2.685.963 4.02 3.038c.88 1.384 1.26 3.249 1.13 5.596q-.15 2.748-1.35 4.749c-.79 1.336-1.97 2.348-3.55 3.038-1.57.689-3.57.968-5.99.837l3.7-2.727 3.47 6.41c.53.991 1.1 2.048 1.7 3.172.61 1.124 1.21 2.226 1.78 3.305.57 1.065 1.08 2.004 1.52 2.817l-9.98-.542c-.58-1.18-1.14-2.309-1.69-3.386-.53-1.077-1.05-2.132-1.57-3.165l-4.13-8.471 5.03 3.826-7.17-.389.31-5.69 4.72.257q1.155.063 2.04-.191a2.47 2.47 0 0 0 1.37-1.045c.34-.527.54-1.277.59-2.25.04-.658-.02-1.207-.17-1.646-.15-.453-.37-.824-.67-1.113s-.65-.501-1.04-.638c-.4-.136-.81-.216-1.26-.24l-9.94-.54 6.65-4.979q-.15 2.533-.27 4.916c-.09 1.574-.18 3.356-.29 5.346l-.49 9.038c-.11 1.932-.2 3.664-.29 5.195-.08 1.517-.16 3.084-.25 4.702zm30.19 1.641c.09-1.617.18-3.185.26-4.702.08-1.531.18-3.263.28-5.195l.57-10.477c.11-2.003.21-3.792.29-5.367q.135-2.382.27-4.873l21.08 1.146-.38 7.063-4.06-.221-5.07-.275-6.95-.378 3.97-5.447c-.09 1.66-.17 3.285-.26 4.873-.09 1.575-.18 3.371-.29 5.389l-.42 7.6c-.1 1.932-.2 3.664-.28 5.195s-.17 3.106-.26 4.723l-2.8-5.815 7 .38 4.59.25 4.17.226-.39 7.063zm7.3-11.812.35-6.419 5.41.294 4.68.254 3.78.205-.35 6.419-3.87-.21-4.61-.25zM1219.83 192.275l-4.49-.244-3.82-.207-3.14-.171c.09-1.617.18-3.184.26-4.701.08-1.531.18-3.263.28-5.195l.57-10.477c.11-2.004.21-3.793.29-5.367q.135-2.383.27-4.873l6.14.333 6.89.375c2.27.123 4.15.397 5.62.822 1.47.41 2.61.946 3.44 1.608.84.663 1.41 1.426 1.73 2.29.31.864.44 1.811.38 2.842-.07 1.302-.38 2.419-.94 3.351a6.6 6.6 0 0 1-2.16 2.251q-1.335.831-2.97 1.109l-.03.622c1.3.372 2.4.877 3.32 1.516a5.87 5.87 0 0 1 2.06 2.48c.45 1.001.63 2.238.55 3.712-.07 1.317-.34 2.501-.82 3.551-.47 1.037-1.24 1.907-2.29 2.61-1.06.704-2.5 1.214-4.31 1.532-1.81.304-4.09.381-6.83.231m-2.41-6.418 3.58.195q1.245.067 2.1-.23c.59-.198 1.03-.526 1.33-.983.31-.457.49-1.036.52-1.737.06-1.017-.2-1.806-.77-2.368s-1.46-.876-2.64-.94l-5.89-.32.31-5.689 5.41.294c.76.041 1.41-.046 1.93-.261.53-.23.94-.567 1.22-1.011.3-.457.47-1.015.5-1.673.05-.974-.16-1.746-.65-2.318q-.705-.857-2.31-.944l-3.65-.198q-.075 1.309-.15 2.726-.075 1.395-.18 3.263l-.36 6.655c-.06 1.16-.12 2.169-.17 3.027-.04.859-.09 1.696-.13 2.512m19.83 7.365c.09-1.617.18-3.184.26-4.701.08-1.532.18-3.263.28-5.196l.57-10.455c.11-2.018.21-3.814.29-5.388q.135-2.383.27-4.874l8.86.482c-.09 1.66-.18 3.285-.26 4.874q-.135 2.361-.3 5.388l-.49 9.017c-.1 1.932-.19 3.664-.28 5.195-.08 1.517-.17 3.084-.25 4.702l-2.67-6.389 6.2.337 3.67.199 2.95.16 2.79.152-.42 7.664zm23.34 1.268c.59-1.604 1.21-3.3 1.87-5.087q.975-2.702 1.89-5.087l3.81-10.343c.69-1.886 1.31-3.575 1.87-5.066.55-1.491 1.11-2.997 1.67-4.517l11.31.615c.41 1.644.81 3.237 1.18 4.779.39 1.543.82 3.253 1.3 5.13l2.64 10.695c.44 1.718.88 3.486 1.33 5.304.46 1.82.9 3.559 1.31 5.218l-9.14-.497c-.29-1.552-.59-3.147-.91-4.786-.3-1.639-.59-3.184-.89-4.635l-2.65-14.118-.63-.034-4.22 13.572a515 515 0 0 1-1.44 4.659c-.5 1.623-.99 3.183-1.46 4.679zm8.63-5.215 1.35-6.494 12.64.687.44 6.591zm38.59 8.406c-2.52-.137-4.78-.633-6.77-1.488-1.97-.853-3.64-2.013-5-3.479-1.35-1.467-2.36-3.193-3.01-5.181q-.975-2.982-.78-6.61c.16-3.063.93-5.77 2.29-8.122q2.04-3.528 5.7-5.418c2.44-1.274 5.36-1.818 8.77-1.633q1.455.079 2.88.35 1.455.251 2.79.647 1.335.374 2.49.846c.79.301 1.48.633 2.08.996l-1.06 8.124c-1.08-.776-2.12-1.407-3.13-1.893q-1.485-.748-2.85-1.123c-.9-.25-1.76-.397-2.56-.441-1.47-.08-2.81.171-4 .752-1.19.567-2.16 1.469-2.9 2.706s-1.17 2.8-1.27 4.689q-.09 1.74.33 3.356a8.2 8.2 0 0 0 1.4 2.853c.66.84 1.5 1.525 2.54 2.055q1.545.773 3.69.89c.63.034 1.28.026 1.94-.024a15 15 0 0 0 2.03-.343c.68-.163 1.37-.406 2.06-.727.71-.321 1.42-.719 2.15-1.197l-.01 8.074q-.945.423-2.1.726c-.77.202-1.59.351-2.44.449-.84.112-1.7.18-2.59.203q-1.335.035-2.67-.037m31.12 1.067c-.63-1.326-1.23-2.58-1.82-3.76-.56-1.179-1.12-2.343-1.66-3.492l-2.75-5.64-1.91-.104.37-6.87 1.79.097 3.05-4.269c.73-1.009 1.45-2.017 2.17-3.026s1.56-2.19 2.51-3.545l10.05.546c-1.26 1.539-2.51 3.064-3.74 4.576q-1.815 2.248-3.69 4.558l-4.71 5.838.02-3.918 4.45 8.015q1.05 1.823 2.22 3.953c.78 1.421 1.55 2.797 2.3 4.13q1.11 1.998 1.92 3.485zm-17.02-.925c.09-1.618.17-3.185.26-4.702.08-1.531.17-3.263.28-5.195l.57-10.455c.11-2.018.2-3.815.29-5.389.08-1.589.17-3.213.26-4.873l8.83.479q-.135 2.49-.27 4.874c-.08 1.574-.18 3.37-.29 5.388l-.57 10.455c-.1 1.932-.2 3.664-.28 5.196-.08 1.517-.17 3.084-.26 4.701zm37.09 2.015c.59-1.604 1.21-3.3 1.87-5.088.65-1.801 1.29-3.497 1.89-5.086l3.81-10.343c.69-1.886 1.32-3.575 1.87-5.066.55-1.492 1.11-2.998 1.67-4.518l11.31.615c.41 1.645.81 3.238 1.18 4.78.39 1.543.82 3.253 1.3 5.13l2.65 10.695c.43 1.717.88 3.485 1.32 5.304.46 1.819.9 3.558 1.31 5.217l-9.14-.497c-.29-1.551-.59-3.147-.91-4.786-.3-1.638-.59-3.183-.89-4.634l-2.65-14.119-.62-.034-4.23 13.573q-.675 2.223-1.44 4.658c-.5 1.624-.99 3.184-1.46 4.68zm8.63-5.215 1.35-6.494 12.64.687.44 6.591zm24.68 7.025c.09-1.617.17-3.184.26-4.701.08-1.532.17-3.264.28-5.196l.57-10.455c.11-2.018.2-3.814.29-5.388.09-1.589.17-3.213.26-4.874l7.65.416c1.11 1.883 2.15 3.634 3.11 5.251.96 1.602 1.93 3.226 2.9 4.873l3.73 6.253.63.034.3-5.539c.11-2.018.2-3.815.29-5.389.09-1.589.17-3.213.26-4.873l8.27.449c-.09 1.66-.18 3.285-.26 4.873q-.135 2.362-.3 5.389l-.57 10.455c-.1 1.932-.19 3.664-.28 5.195-.08 1.517-.17 3.085-.25 4.702l-7.56-.411c-.92-1.528-1.88-3.109-2.86-4.742q-1.47-2.448-3.18-5.34l-3.81-6.322-.6-.033-.33 5.925c-.1 1.933-.2 3.664-.28 5.196-.08 1.517-.17 3.084-.25 4.701zm47.33 3.196c-2.52-.136-4.78-.632-6.77-1.487-1.98-.854-3.64-2.014-5-3.48-1.35-1.466-2.36-3.193-3.01-5.18q-.975-2.982-.78-6.61c.16-3.063.93-5.77 2.29-8.122q2.04-3.528 5.7-5.418 3.66-1.911 8.76-1.634c.98.053 1.94.17 2.89.351q1.455.25 2.79.647 1.335.374 2.49.846c.79.301 1.48.633 2.08.995l-1.07 8.125a21 21 0 0 0-3.12-1.893q-1.485-.748-2.85-1.123c-.9-.251-1.76-.397-2.56-.441-1.47-.08-2.81.17-4 .751-1.19.567-2.16 1.469-2.9 2.706-.75 1.238-1.17 2.801-1.27 4.69a11 11 0 0 0 .33 3.356 8.2 8.2 0 0 0 1.4 2.853c.66.84 1.5 1.524 2.54 2.054q1.545.773 3.69.89c.63.034 1.28.026 1.94-.024.67-.064 1.34-.178 2.02-.342q1.035-.245 2.07-.728c.7-.32 1.42-.719 2.15-1.196l-.01 8.074q-.945.422-2.1.725c-.78.202-1.59.352-2.44.449-.84.113-1.7.18-2.59.204-.9.023-1.78.011-2.67-.038m29.16 1.585c-2.85-.155-5.28-.71-7.3-1.667-2.01-.971-3.64-2.236-4.87-3.796a14.8 14.8 0 0 1-2.62-5.267 18.7 18.7 0 0 1-.62-6.041c.16-2.977.89-5.643 2.18-7.999q1.95-3.532 5.61-5.487c2.46-1.302 5.5-1.854 9.14-1.657 2.76.15 5.13.696 7.12 1.636q2.985 1.411 4.86 3.709c1.25 1.533 2.15 3.283 2.71 5.251.55 1.967.77 4.053.65 6.258q-.255 4.593-2.25 8.102c-1.33 2.325-3.23 4.117-5.68 5.376-2.45 1.245-5.43 1.772-8.93 1.582m.28-7.198q1.695.093 3-.526a6.45 6.45 0 0 0 2.25-1.772 8.6 8.6 0 0 0 1.46-2.72c.36-1.043.57-2.158.64-3.346.06-1.231-.04-2.385-.31-3.462-.26-1.09-.67-2.046-1.22-2.865a6.3 6.3 0 0 0-2.05-1.985q-1.23-.734-2.82-.82c-1.1-.06-2.09.115-2.98.527-.88.397-1.64.98-2.27 1.75q-.945 1.154-1.5 2.738a12.1 12.1 0 0 0-.66 3.367q-.09 1.782.27 3.395a9.2 9.2 0 0 0 1.16 2.862 6.4 6.4 0 0 0 2.06 2.007q1.275.758 2.97.85m19.52 7.65c.09-1.617.18-3.185.26-4.702.08-1.531.18-3.263.28-5.195l.57-10.477c.11-2.003.21-3.792.29-5.367q.135-2.382.27-4.873l3.54.192 4.4.24 4.59.249q3.885.212 6.57 1.175c1.79.643 3.13 1.656 4.01 3.039q1.335 2.074 1.14 5.596-.15 2.748-1.35 4.749c-.79 1.335-1.98 2.347-3.55 3.037s-3.57.969-5.99.837l3.7-2.727 3.47 6.411c.53.991 1.1 2.048 1.7 3.171.61 1.125 1.2 2.226 1.78 3.305.57 1.065 1.08 2.004 1.52 2.818l-9.98-.543c-.58-1.18-1.14-2.308-1.69-3.386-.53-1.076-1.05-2.131-1.57-3.164l-4.13-8.471 5.03 3.826-7.17-.39.31-5.689 4.72.257c.77.042 1.45-.022 2.03-.191a2.44 2.44 0 0 0 1.37-1.045q.525-.79.6-2.25c.04-.659-.02-1.207-.17-1.646-.15-.453-.37-.824-.67-1.113a2.8 2.8 0 0 0-1.04-.638 4.7 4.7 0 0 0-1.26-.241l-9.94-.54 6.64-4.979c-.09 1.689-.18 3.328-.26 4.917-.09 1.574-.19 3.356-.29 5.345l-.49 9.038c-.11 1.933-.2 3.664-.29 5.196-.08 1.517-.16 3.084-.25 4.701zm30.19 1.64c.09-1.617.18-3.184.26-4.701.08-1.532.18-3.263.28-5.196l.57-10.476c.11-2.004.21-3.793.29-5.367q.135-2.383.27-4.873l21.08 1.145-.39 7.063-4.05-.22-5.07-.276-6.96-.378 3.98-5.446c-.09 1.66-.18 3.284-.26 4.873-.09 1.574-.19 3.371-.29 5.389l-.42 7.599c-.1 1.933-.2 3.664-.28 5.196s-.17 3.105-.26 4.723l-2.8-5.816 7 .381 4.59.249 4.16.227-.38 7.063zm7.3-11.812.35-6.419 5.41.294 4.68.255 3.78.205-.35 6.419-3.87-.21-4.61-.251zM1644.13 220.105l-4.48-.244-3.83-.208-3.13-.17c.09-1.617.17-3.184.26-4.702.08-1.531.17-3.263.28-5.195l.57-10.476c.11-2.004.2-3.793.29-5.367.09-1.589.17-3.214.26-4.874l6.14.334 6.9.374q3.405.186 5.61.822 2.205.615 3.45 1.609c.84.662 1.41 1.426 1.72 2.29.32.864.44 1.811.39 2.841-.07 1.303-.38 2.42-.94 3.351a6.56 6.56 0 0 1-2.17 2.251c-.89.555-1.88.924-2.96 1.109l-.04.623c1.3.372 2.41.877 3.32 1.515a5.73 5.73 0 0 1 2.06 2.481c.45 1 .64 2.237.56 3.712-.07 1.316-.35 2.5-.82 3.551-.47 1.037-1.24 1.906-2.3 2.61-1.05.703-2.49 1.214-4.3 1.532q-2.715.454-6.84.231m-2.4-6.418 3.58.195q1.245.067 2.1-.231c.59-.198 1.03-.525 1.33-.983.31-.457.48-1.036.52-1.737.06-1.016-.2-1.805-.77-2.368-.58-.562-1.46-.875-2.65-.94l-5.88-.319.31-5.689 5.41.294c.76.041 1.4-.046 1.93-.262.53-.229.94-.566 1.22-1.01.3-.458.46-1.015.5-1.674.05-.973-.16-1.746-.65-2.317-.47-.572-1.24-.886-2.32-.945l-3.65-.198c-.04.873-.09 1.782-.14 2.727-.06.93-.11 2.018-.18 3.263l-.36 6.655c-.07 1.159-.12 2.168-.17 3.027-.04.859-.09 1.696-.13 2.512m19.83 7.365c.09-1.617.17-3.185.26-4.702.08-1.531.17-3.263.28-5.195l.57-10.455c.11-2.018.2-3.814.29-5.389.08-1.588.17-3.213.26-4.873l8.87.482q-.135 2.49-.27 4.873c-.08 1.574-.18 3.371-.29 5.389l-.49 9.016c-.1 1.933-.2 3.664-.28 5.196-.08 1.517-.17 3.084-.26 4.701l-2.66-6.389 6.2.337 3.67.2 2.94.16 2.79.151-.41 7.664zm23.33 1.268c.59-1.605 1.22-3.3 1.87-5.088.66-1.801 1.29-3.497 1.9-5.086l3.81-10.343c.69-1.886 1.31-3.575 1.87-5.066.55-1.492 1.11-2.998 1.66-4.518l11.32.615c.41 1.645.8 3.238 1.18 4.78q.585 2.315 1.29 5.13l2.65 10.695c.44 1.717.88 3.485 1.33 5.304.46 1.819.9 3.558 1.31 5.217l-9.15-.497q-.435-2.328-.9-4.786c-.3-1.638-.59-3.183-.89-4.635l-2.66-14.118-.62-.034-4.22 13.572q-.69 2.225-1.44 4.659c-.51 1.624-.99 3.183-1.46 4.679zm8.64-5.215 1.35-6.494 12.64.687.44 6.591zm38.59 8.405c-2.52-.137-4.78-.632-6.77-1.487-1.98-.854-3.64-2.014-5-3.48s-2.36-3.193-3.01-5.181q-.99-2.98-.78-6.609c.16-3.063.93-5.77 2.29-8.122q2.04-3.528 5.7-5.418 3.66-1.911 8.76-1.634c.98.053 1.94.17 2.89.351q1.455.25 2.79.647 1.335.374 2.49.846c.79.301 1.48.633 2.08.995l-1.07 8.124a21 21 0 0 0-3.12-1.892c-1-.499-1.94-.873-2.85-1.124-.9-.25-1.76-.397-2.56-.44-1.47-.08-2.81.17-4 .751-1.2.567-2.16 1.469-2.91 2.706q-1.11 1.857-1.26 4.69c-.07 1.159.05 2.278.33 3.356a8.1 8.1 0 0 0 1.4 2.853c.66.84 1.5 1.524 2.53 2.054 1.04.516 2.27.812 3.7.89.63.034 1.28.026 1.94-.024.67-.064 1.34-.178 2.02-.342.69-.164 1.37-.406 2.07-.728.7-.32 1.42-.719 2.15-1.196l-.01 8.074q-.945.422-2.1.725c-.78.202-1.59.352-2.44.449-.84.112-1.7.18-2.6.204-.89.023-1.78.011-2.66-.038m31.12 1.067a312 312 0 0 0-1.82-3.759c-.57-1.179-1.12-2.343-1.66-3.492l-2.75-5.64-1.91-.104.37-6.87 1.78.097 3.06-4.27q1.095-1.512 2.16-3.026 1.095-1.512 2.52-3.545l10.05.546c-1.26 1.539-2.51 3.065-3.74 4.577-1.21 1.499-2.45 3.018-3.69 4.558l-4.71 5.837.02-3.917 4.45 8.015q1.035 1.821 2.22 3.953c.78 1.42 1.55 2.797 2.29 4.129q1.125 1.999 1.92 3.485zm-17.02-.925c.09-1.617.17-3.184.25-4.701.09-1.532.18-3.264.28-5.196l.57-10.455q.165-3.027.3-5.388c.08-1.589.17-3.213.26-4.874l8.82.48c-.09 1.66-.17 3.284-.26 4.873-.09 1.574-.18 3.371-.29 5.389l-.57 10.455c-.11 1.932-.2 3.664-.28 5.195-.09 1.517-.17 3.084-.26 4.702zm37.08 2.016c.59-1.605 1.22-3.301 1.87-5.088a354 354 0 0 1 1.9-5.086l3.81-10.344c.69-1.886 1.31-3.574 1.87-5.066.55-1.491 1.11-2.997 1.66-4.517l11.32.615c.41 1.644.81 3.238 1.18 4.779q.585 2.314 1.29 5.131l2.65 10.694c.44 1.718.88 3.486 1.33 5.304.46 1.82.9 3.559 1.31 5.218l-9.15-.497q-.435-2.328-.9-4.786c-.3-1.639-.59-3.183-.89-4.635l-2.65-14.118-.63-.034-4.22 13.572q-.69 2.225-1.44 4.659c-.5 1.623-.99 3.183-1.46 4.679zm8.64-5.215 1.35-6.495 12.64.687.44 6.591zm24.68 7.025c.09-1.618.17-3.185.25-4.702.09-1.531.18-3.263.29-5.195l.56-10.455q.165-3.027.3-5.389c.08-1.588.17-3.213.26-4.873l7.64.415 3.12 5.251c.96 1.603 1.93 3.227 2.9 4.873l3.73 6.253.62.034.3-5.539q.165-3.027.3-5.388c.08-1.589.17-3.213.26-4.874l8.27.45q-.135 2.49-.27 4.873c-.08 1.574-.18 3.37-.29 5.388l-.57 10.455c-.1 1.933-.2 3.664-.28 5.196-.08 1.517-.17 3.084-.26 4.701l-7.55-.41c-.92-1.529-1.88-3.11-2.87-4.742-.97-1.632-2.03-3.412-3.17-5.34l-3.82-6.323-.6-.032-.32 5.925c-.1 1.932-.2 3.664-.28 5.195-.08 1.517-.17 3.085-.26 4.702zm47.33 3.196c-2.52-.137-4.78-.633-6.77-1.487-1.98-.854-3.65-2.014-5-3.48-1.36-1.466-2.36-3.193-3.01-5.181-.66-1.988-.92-4.191-.79-6.61.17-3.062.94-5.77 2.3-8.122q2.04-3.527 5.7-5.417c2.43-1.275 5.36-1.819 8.76-1.634.98.053 1.94.17 2.89.351q1.455.251 2.79.646 1.335.375 2.49.846c.79.301 1.48.633 2.08.996l-1.07 8.124q-1.62-1.164-3.12-1.892-1.5-.749-2.85-1.124c-.91-.25-1.76-.397-2.56-.44-1.47-.081-2.81.17-4 .751-1.2.567-2.16 1.469-2.91 2.706q-1.11 1.855-1.26 4.69a10.7 10.7 0 0 0 .33 3.355 8.1 8.1 0 0 0 1.4 2.854c.65.839 1.5 1.524 2.53 2.054 1.04.515 2.27.812 3.7.89.63.034 1.28.026 1.94-.024.66-.064 1.34-.179 2.02-.342.69-.164 1.37-.407 2.07-.728.7-.32 1.42-.719 2.15-1.196l-.01 8.074c-.63.281-1.33.523-2.11.725q-1.155.303-2.43.449c-.84.112-1.71.18-2.6.203s-1.78.011-2.66-.037m29.15 1.584c-2.84-.154-5.28-.71-7.29-1.666-2.01-.971-3.64-2.236-4.88-3.796a14.95 14.95 0 0 1-2.62-5.267 19.3 19.3 0 0 1-.62-6.041c.17-2.977.89-5.644 2.18-7.999 1.31-2.355 3.18-4.184 5.62-5.487 2.45-1.302 5.5-1.855 9.13-1.657 2.77.15 5.14.695 7.13 1.636q2.97 1.41 4.86 3.709 1.875 2.298 2.7 5.25c.56 1.968.77 4.054.65 6.258-.16 3.063-.91 5.764-2.24 8.103-1.34 2.325-3.23 4.117-5.68 5.376q-3.675 1.867-8.94 1.581m.29-7.197q1.695.092 3-.526a6.45 6.45 0 0 0 2.25-1.773 8.6 8.6 0 0 0 1.46-2.719q.54-1.565.63-3.347.105-1.845-.3-3.461-.39-1.636-1.23-2.866a6.2 6.2 0 0 0-2.04-1.984q-1.23-.734-2.82-.821c-1.1-.06-2.1.116-2.98.527-.88.397-1.64.981-2.27 1.75q-.945 1.155-1.5 2.739-.57 1.563-.66 3.366-.105 1.782.27 3.395a9.4 9.4 0 0 0 1.15 2.862 6.5 6.5 0 0 0 2.07 2.007q1.275.758 2.97.851m19.52 7.649c.09-1.617.17-3.184.26-4.701.08-1.532.17-3.263.28-5.196l.57-10.476c.11-2.004.2-3.793.29-5.367.09-1.589.17-3.213.26-4.873l3.55.192 4.4.239 4.59.25q3.885.211 6.57 1.175c1.79.643 3.13 1.655 4.01 3.039q1.335 2.075 1.14 5.595c-.1 1.832-.55 3.415-1.36 4.75q-1.185 2.002-3.54 3.037c-1.57.689-3.57.968-5.99.837l3.7-2.727 3.46 6.411c.54.99 1.11 2.048 1.7 3.171.62 1.124 1.21 2.226 1.78 3.305q.87 1.597 1.53 2.817l-9.98-.542c-.58-1.18-1.15-2.309-1.69-3.386-.53-1.077-1.06-2.132-1.57-3.165l-4.13-8.471 5.03 3.826-7.18-.389.31-5.689 4.73.256c.77.042 1.45-.021 2.03-.191a2.44 2.44 0 0 0 1.37-1.045c.35-.527.54-1.277.6-2.25.03-.658-.02-1.207-.17-1.646-.15-.453-.37-.824-.67-1.113s-.65-.501-1.04-.638q-.6-.204-1.26-.24l-9.94-.54 6.64-4.979q-.135 2.533-.27 4.916c-.08 1.574-.18 3.356-.29 5.346l-.49 9.038c-.1 1.932-.2 3.664-.28 5.195-.08 1.517-.17 3.085-.25 4.702zm30.19 1.641c.09-1.617.17-3.185.26-4.702.08-1.531.17-3.263.28-5.195l.57-10.477c.11-2.003.2-3.792.29-5.367.09-1.588.17-3.213.26-4.873l21.09 1.146-.39 7.063-4.06-.221-5.06-.275-6.96-.378 3.98-5.447c-.09 1.66-.18 3.285-.26 4.874q-.135 2.361-.3 5.388l-.41 7.6c-.11 1.932-.2 3.664-.28 5.195-.09 1.532-.17 3.106-.26 4.723l-2.81-5.815 7 .38 4.6.25 4.16.226-.38 7.063zm7.3-11.812.34-6.419 5.41.294 4.68.254 3.78.205-.35 6.419-3.86-.21-4.62-.25z"/></g><path fill="#FF0005" d="m-360.009 176.582 2305.83-103.67 3.28 72.927L-356.73 249.51z"/><path fill="#fff" d="m-283.904 228.583-4.486.252-3.821.215-3.134.176-.264-4.701-.292-5.195-.589-10.476-.301-5.366-.274-4.873 6.139-.345 6.891-.387q3.413-.192 5.674.198 2.26.368 3.6 1.219 1.362.849 1.969 2.085.608 1.237.695 2.782.11 1.954-.561 3.434a6.66 6.66 0 0 1-1.906 2.476 8.1 8.1 0 0 1-2.827 1.429l.035.623q2 .34 3.467 1.14a5.8 5.8 0 0 1 2.322 2.238q.833 1.418.957 3.629.111 1.975-.421 3.62-.533 1.623-1.993 2.847t-4.109 1.996q-2.649.752-6.771.984m-3.099-6.114 3.584-.201q1.245-.07 2.063-.461.84-.391 1.208-1.123.389-.732.33-1.784-.086-1.524-1.032-2.268t-2.728-.643l-5.881.33-.32-5.688 5.409-.304q1.139-.064 1.89-.473.751-.43 1.099-1.138.369-.732.313-1.719-.082-1.46-.901-2.232-.797-.773-2.407-.683l-3.649.205.153 2.726.183 3.263.374 6.655.17 3.026zm20.525 5.135-.265-4.702-.292-5.194-.587-10.454-.303-5.388-.274-4.873 8.866-.498.274 4.872.302 5.388.507 9.016.292 5.195.264 4.701-3.355-6.056 6.204-.349 3.671-.206 2.94-.165 2.791-.157.431 7.663zm23.332-1.312 1.297-5.262q.683-2.795 1.32-5.264l2.65-10.701q.719-2.925 1.299-5.241t1.158-4.673l11.313-.636a725 725 0 0 1 1.703 4.62l1.85 4.957 3.811 10.337a634 634 0 0 1 1.903 5.126q.988 2.637 1.877 5.041l-9.145.514q-.687-2.265-1.424-4.657a234 234 0 0 0-1.395-4.509l-4.196-13.739-.622.035-2.705 13.955q-.43 2.285-.915 4.789a1828 1828 0 0 1-.935 4.811zm8.01-6.135.619-6.602 12.644-.711 1.162 6.503zm39.276 4.103q-3.778.212-6.889-.733-3.09-.946-5.353-2.908t-3.566-4.817q-1.3-2.855-1.505-6.483-.258-4.594 1.384-8.325 1.642-3.732 5.067-6.013 3.424-2.303 8.533-2.59a22 22 0 0 1 2.908.03q1.47.09 2.84.336 1.37.224 2.573.566 1.224.319 2.175.761l-.164 8.192q-1.735-.98-3.317-1.536a15.6 15.6 0 0 0-2.952-.804q-1.391-.222-2.593-.155-2.21.125-3.895 1.188-1.686 1.042-2.588 3.009-.901 1.967-.742 4.801a10.7 10.7 0 0 0 .702 3.298 8.1 8.1 0 0 0 1.701 2.682q1.12 1.144 2.748 1.762 1.627.599 3.774.477a15 15 0 0 0 1.925-.237 15 15 0 0 0 1.971-.563 11 11 0 0 0 1.97-.95 16 16 0 0 0 2.009-1.427l.882 8.026q-.897.524-2.014.953t-2.372.714q-1.231.307-2.556.489-1.326.182-2.656.257m31.053-2.37a312 312 0 0 0-2.223-3.536 422 422 0 0 1-2.037-3.288l-3.355-5.302-1.911.107-.386-6.869 1.782-.1 2.563-4.58a381 381 0 0 0 1.82-3.246q.92-1.624 2.113-3.801l10.046-.565a1614 1614 0 0 0-6.378 9.898l-4.038 6.321-.412-3.896 5.308 7.475a304 304 0 0 1 2.64 3.685 833 833 0 0 0 2.736 3.852 255 255 0 0 1 2.293 3.252zm-17.023.957-.264-4.701-.292-5.195-.587-10.454-.303-5.388-.274-4.873 8.823-.496.273 4.873.303 5.388.588 10.454.292 5.195.264 4.701zm37.084-2.084 1.298-5.263q.683-2.795 1.319-5.264l2.65-10.7q.719-2.927 1.299-5.241.58-2.316 1.159-4.674l11.313-.635a702 702 0 0 1 1.702 4.62q.836 2.235 1.85 4.956l3.811 10.338a620 620 0 0 1 1.904 5.126q.988 2.635 1.876 5.041l-9.144.514a996 996 0 0 0-1.425-4.658 241 241 0 0 0-1.394-4.508l-4.196-13.74-.623.035-2.704 13.955a1281 1281 0 0 1-1.851 9.601zm8.01-6.135.62-6.603 12.643-.711 1.163 6.503zm25.3 4.263-.264-4.701-.292-5.195-.588-10.454-.302-5.388-.274-4.873 7.642-.429 3.676 4.875a864 864 0 0 1 3.42 4.524l4.396 5.804.622-.035-.31-5.538-.304-5.388-.273-4.873 8.264-.465.274 4.873.303 5.388.587 10.454.292 5.195.264 4.701-7.556.425a3533 3533 0 0 0-3.37-4.398 2537 2537 0 0 1-3.745-4.957l-4.485-5.864-.602.034.333 5.925.292 5.194.265 4.701zm47.391-2.039q-3.778.212-6.889-.732-3.09-.947-5.353-2.908-2.263-1.962-3.565-4.817t-1.506-6.484q-.257-4.593 1.384-8.325t5.068-6.013q3.423-2.302 8.532-2.589a22 22 0 0 1 2.909.03q1.47.09 2.84.336 1.37.224 2.572.566 1.224.319 2.175.76l-.164 8.193q-1.734-.98-3.316-1.537a15.7 15.7 0 0 0-2.953-.803 12 12 0 0 0-2.592-.156q-2.211.125-3.896 1.188-1.686 1.042-2.587 3.01-.902 1.966-.743 4.8.099 1.739.703 3.299a8.1 8.1 0 0 0 1.7 2.682q1.12 1.143 2.749 1.762 1.626.597 3.773.477.945-.053 1.925-.237.98-.207 1.971-.563a11 11 0 0 0 1.97-.951 16 16 0 0 0 2.01-1.426l.881 8.025q-.897.525-2.014.953-1.116.429-2.371.715-1.232.306-2.557.488-1.324.183-2.656.257m29.156-1.638q-4.27.24-7.434-.853-3.163-1.114-5.264-3.236a14.9 14.9 0 0 1-3.184-4.946 19 19 0 0 1-1.282-5.936q-.25-4.466 1.284-8.19 1.557-3.727 4.978-6.073 3.442-2.346 8.895-2.653 4.144-.233 7.261.841t5.238 3.151q2.12 2.078 3.27 4.92t1.336 6.148q.258 4.594-1.343 8.302-1.601 3.686-5.048 5.968-3.447 2.261-8.707 2.557m-.511-7.185q1.695-.096 2.924-.854a6.46 6.46 0 0 0 2.04-2.009 8.7 8.7 0 0 0 1.153-2.865q.36-1.613.261-3.395-.103-1.846-.687-3.407-.562-1.584-1.53-2.713a6.2 6.2 0 0 0-2.252-1.747q-1.304-.594-2.892-.505-1.653.093-2.902.852a6.2 6.2 0 0 0-2.064 1.989q-.812 1.252-1.194 2.888a11.9 11.9 0 0 0-.282 3.418q.1 1.782.64 3.345a9.3 9.3 0 0 0 1.467 2.717 6.4 6.4 0 0 0 2.274 1.768q1.348.612 3.044.518m20.247 5.451q-.137-2.426-.264-4.701l-.292-5.195-.59-10.475-.3-5.367-.274-4.873 3.541-.199 4.401-.247 4.594-.258q3.886-.219 6.657.444t4.323 2.578q1.55 1.915 1.748 5.436.154 2.748-.825 4.87-.957 2.121-3.189 3.409-2.231 1.289-5.86 1.493l3.378-3.119 4.149 5.99q.96 1.389 2.04 2.965 1.1 1.575 2.133 3.089a650 650 0 0 0 1.827 2.632l-9.981.561a387 387 0 0 0-2.053-3.18 513 513 0 0 0-1.91-2.972l-5.035-7.964 5.415 3.249-7.17.403-.32-5.689 4.723-.265q1.16-.066 2.001-.414.84-.37 1.247-1.19.427-.843.344-2.302-.055-.987-.349-1.617a2.65 2.65 0 0 0-.79-1.032 2.8 2.8 0 0 0-1.106-.52 4.6 4.6 0 0 0-1.276-.1l-9.939.558 6.055-5.68.276 4.915.3 5.345.508 9.038.292 5.195.264 4.701zm30.186-1.696-.264-4.701-.292-5.195-.588-10.476-.302-5.366-.274-4.873 21.08-1.184.397 7.062-9.123.513-6.955.39 3.353-5.851.274 4.872.303 5.388.427 7.599.292 5.195.265 4.723-3.43-5.471 6.998-.393a9408 9408 0 0 1 8.758-.492l.397 7.062zm5.95-12.544-.361-6.419 5.41-.304 4.679-.263 3.778-.212.36 6.419-3.863.217-4.616.259zM140.886 209.484l-4.486.252-3.821.215-3.134.176-.264-4.701-.292-5.195-.589-10.475-.301-5.367-.274-4.872 6.139-.345 6.891-.388q3.413-.192 5.674.198 2.26.369 3.6 1.219 1.361.85 1.97 2.086.607 1.237.694 2.782.11 1.953-.561 3.434a6.66 6.66 0 0 1-1.906 2.476 8.2 8.2 0 0 1-2.827 1.429l.035.623q2 .339 3.467 1.14a5.8 5.8 0 0 1 2.322 2.238q.833 1.418.957 3.629.111 1.974-.421 3.619-.533 1.624-1.993 2.847-1.46 1.224-4.109 1.997-2.649.752-6.771.983m-3.099-6.113 3.584-.202q1.245-.07 2.063-.46.84-.392 1.208-1.123.39-.733.33-1.785-.085-1.524-1.032-2.267-.946-.744-2.728-.644l-5.881.331-.32-5.689 5.409-.304q1.139-.063 1.89-.472.751-.43 1.099-1.139.369-.73.313-1.718-.082-1.46-.901-2.232-.797-.774-2.407-.683l-3.649.205.153 2.726.183 3.263.374 6.654.17 3.027zm20.525 5.134-.265-4.701-.292-5.195-.587-10.454-.303-5.388-.274-4.873 8.866-.498.274 4.873.303 5.388.506 9.016.292 5.195.264 4.701-3.355-6.057 6.204-.348 6.611-.372 2.791-.157.431 7.664zm23.332-1.311 1.297-5.263q.683-2.794 1.32-5.263l2.65-10.701q.719-2.927 1.299-5.241.58-2.315 1.159-4.674l11.312-.635a725 725 0 0 1 1.703 4.62l1.85 4.957 3.811 10.337a621 621 0 0 1 1.903 5.126 1188 1188 0 0 1 1.877 5.041l-9.145.514q-.687-2.266-1.424-4.658a234 234 0 0 0-1.395-4.508l-4.196-13.74-.622.035-2.705 13.956a995 995 0 0 1-.915 4.788q-.483 2.504-.935 4.812zm8.01-6.135.62-6.603 12.643-.71 1.162 6.502zm39.276 4.102q-3.778.212-6.889-.732-3.09-.946-5.353-2.908t-3.566-4.817q-1.3-2.856-1.505-6.483-.258-4.594 1.384-8.326 1.643-3.731 5.067-6.013 3.424-2.303 8.533-2.589a22 22 0 0 1 2.908.03q1.47.09 2.84.336a23 23 0 0 1 2.573.566 13 13 0 0 1 2.175.76l-.164 8.193q-1.735-.98-3.317-1.537a15.7 15.7 0 0 0-2.952-.803 12 12 0 0 0-2.593-.156q-2.21.124-3.895 1.188-1.686 1.042-2.588 3.01-.901 1.966-.742 4.8a10.7 10.7 0 0 0 .702 3.299 8.1 8.1 0 0 0 1.701 2.682q1.12 1.143 2.748 1.762 1.627.597 3.774.477.945-.053 1.925-.237a15 15 0 0 0 1.971-.563 11 11 0 0 0 1.97-.951 16 16 0 0 0 2.009-1.426l.882 8.025q-.897.524-2.014.953t-2.372.715q-1.232.306-2.556.488a33 33 0 0 1-2.656.257m31.053-2.369a303 303 0 0 0-2.223-3.536 464 464 0 0 1-2.037-3.288l-3.355-5.303-1.911.108-.386-6.869 1.782-.101 2.563-4.58a378 378 0 0 0 1.821-3.246 304 304 0 0 0 2.112-3.801l10.046-.564a1614 1614 0 0 0-3.21 4.96l-3.168 4.937-4.038 6.321-.412-3.895 5.308 7.475a304 304 0 0 1 2.64 3.685 832 832 0 0 0 2.736 3.851 255 255 0 0 1 2.293 3.252zm-17.023.956-.264-4.701-.292-5.195-.587-10.454-.303-5.388-.274-4.872 8.823-.496.273 4.873.303 5.388.588 10.454.292 5.194.264 4.701zm37.084-2.084 1.298-5.262q.683-2.795 1.319-5.264l2.65-10.701q.719-2.925 1.299-5.241.581-2.315 1.159-4.673l11.313-.636a724 724 0 0 1 1.702 4.62l1.851 4.957 3.811 10.337a675 675 0 0 1 1.903 5.126q.988 2.637 1.876 5.041l-9.144.514q-.687-2.265-1.425-4.657a241 241 0 0 0-1.394-4.509l-4.196-13.739-.623.035-2.704 13.955a1321 1321 0 0 1-1.851 9.6zm8.01-6.135.62-6.602 12.643-.711 1.163 6.503zm25.3 4.263-.264-4.701-.292-5.194-.587-10.454-.303-5.388-.274-4.873 7.642-.43 3.676 4.876a853 853 0 0 1 3.42 4.523l4.396 5.804.622-.035-.311-5.538-.303-5.388-.273-4.873 8.264-.464.274 4.873.303 5.388.587 10.454.292 5.195.264 4.701-7.556.424-3.369-4.397a2466 2466 0 0 1-3.746-4.958l-4.485-5.863-.601.033.332 5.925.292 5.195.265 4.701zm47.391-2.038q-3.778.212-6.889-.733-3.089-.946-5.353-2.908-2.263-1.96-3.565-4.817-1.302-2.854-1.506-6.483-.257-4.594 1.384-8.325 1.642-3.732 5.068-6.013 3.423-2.302 8.532-2.59a22 22 0 0 1 2.909.031q1.47.089 2.84.335 1.369.225 2.573.566 1.223.319 2.174.761l-.164 8.192q-1.735-.98-3.316-1.536a15.6 15.6 0 0 0-2.953-.803 12 12 0 0 0-2.592-.156q-2.211.125-3.896 1.188-1.686 1.042-2.587 3.009-.902 1.968-.742 4.801.097 1.739.702 3.298a8.1 8.1 0 0 0 1.701 2.682q1.119 1.143 2.748 1.763 1.626.597 3.773.477.945-.054 1.925-.238.98-.206 1.971-.563a11 11 0 0 0 1.971-.95 16 16 0 0 0 2.008-1.427l.882 8.026q-.897.524-2.014.953t-2.371.715a25 25 0 0 1-2.557.488q-1.324.182-2.656.257m29.156-1.639q-4.27.24-7.434-.852-3.163-1.115-5.263-3.236a14.9 14.9 0 0 1-3.186-4.946 19 19 0 0 1-1.281-5.936q-.25-4.465 1.284-8.191 1.557-3.726 4.978-6.072 3.442-2.347 8.895-2.653 4.144-.234 7.261.841 3.118 1.073 5.238 3.151t3.27 4.92 1.336 6.148q.258 4.593-1.343 8.301-1.601 3.686-5.048 5.969-3.447 2.26-8.707 2.556m-.511-7.185q1.696-.095 2.924-.853a6.5 6.5 0 0 0 2.04-2.01 8.7 8.7 0 0 0 1.153-2.864q.361-1.614.261-3.396-.104-1.846-.687-3.406-.562-1.584-1.53-2.714a6.25 6.25 0 0 0-2.252-1.747q-1.303-.594-2.892-.505-1.653.093-2.902.852a6.2 6.2 0 0 0-2.064 1.99q-.812 1.251-1.194 2.888a11.9 11.9 0 0 0-.282 3.418 12.3 12.3 0 0 0 .641 3.345 9.3 9.3 0 0 0 1.466 2.717 6.4 6.4 0 0 0 2.274 1.767q1.348.614 3.044.518m20.247 5.452-.264-4.701-.292-5.195-.589-10.476-.302-5.366-.273-4.873 3.541-.199 4.401-.247 4.594-.258q3.885-.219 6.657.444 2.772.662 4.323 2.578 1.55 1.916 1.748 5.436.154 2.748-.825 4.87-.957 2.12-3.189 3.409t-5.859 1.492l3.377-3.118 4.149 5.99q.96 1.389 2.04 2.965a349 349 0 0 1 2.133 3.088q1.031 1.493 1.827 2.632l-9.981.561a416 416 0 0 0-2.053-3.179 450 450 0 0 0-1.911-2.972l-5.034-7.965 5.415 3.249-7.169.403-.32-5.688 4.722-.266q1.16-.065 2.001-.414a2.45 2.45 0 0 0 1.247-1.19q.426-.841.344-2.301-.055-.989-.349-1.617a2.66 2.66 0 0 0-.79-1.033 2.8 2.8 0 0 0-1.106-.519 4.6 4.6 0 0 0-1.276-.101l-9.939.559 6.055-5.681.276 4.916.301 5.345.507 9.037.292 5.195.265 4.701zm30.186-1.697-.264-4.701-.292-5.194-.588-10.476-.302-5.366-.274-4.873 21.08-1.185.397 7.062-9.123.513-6.955.391 3.353-5.852.274 4.873.303 5.388.427 7.599.292 5.195.265 4.722-3.43-5.47 6.998-.394 4.594-.258 4.164-.234.397 7.063zm5.95-12.544-.361-6.418 5.409-.304 4.68-.263 3.778-.212.361 6.418-3.864.217-4.615.26zM565.677 190.386l-4.486.252-3.821.215-3.134.176-.264-4.701-.292-5.195-.589-10.475-.301-5.367-.274-4.873 6.139-.345 6.891-.387q3.413-.192 5.674.198 2.26.368 3.6 1.219 1.361.849 1.97 2.086.607 1.236.694 2.782.11 1.953-.561 3.433a6.65 6.65 0 0 1-1.906 2.476 8.1 8.1 0 0 1-2.827 1.43l.035.622q2 .34 3.467 1.14a5.8 5.8 0 0 1 2.322 2.239q.833 1.417.957 3.628.111 1.975-.421 3.62-.533 1.623-1.993 2.847t-4.109 1.996q-2.649.753-6.771.984m-3.099-6.114 3.584-.201q1.245-.07 2.063-.461.84-.391 1.208-1.123.39-.732.33-1.784-.086-1.524-1.032-2.268t-2.728-.643l-5.881.33-.32-5.688 5.409-.304q1.139-.064 1.89-.472.751-.43 1.099-1.139.369-.73.313-1.719-.082-1.46-.901-2.232-.797-.773-2.407-.683l-3.649.205.336 5.989.374 6.655.17 3.027zm20.525 5.135-.265-4.701-.291-5.195-.588-10.454-.303-5.388-.274-4.873 8.866-.498.274 4.873.303 5.388.506 9.015.292 5.195.264 4.701-3.355-6.056 6.204-.349 3.671-.206 2.94-.165 2.791-.157.431 7.663zm23.332-1.311 1.297-5.263q.683-2.795 1.32-5.264l2.65-10.7q.719-2.926 1.299-5.242t1.159-4.673l11.312-.636a703 703 0 0 1 1.703 4.621q.836 2.235 1.85 4.956l3.811 10.338a586 586 0 0 1 1.903 5.125q.988 2.637 1.877 5.042l-9.145.513q-.687-2.265-1.424-4.657a234 234 0 0 0-1.395-4.508l-4.196-13.74-.622.035-2.705 13.955a972 972 0 0 1-.915 4.789q-.483 2.504-.935 4.812zm8.01-6.136.62-6.602 12.643-.711 1.162 6.503zm39.276 4.103q-3.778.212-6.889-.733-3.09-.946-5.353-2.908-2.264-1.96-3.566-4.817-1.3-2.854-1.505-6.483-.258-4.593 1.384-8.325 1.643-3.732 5.067-6.013 3.424-2.302 8.533-2.59a22 22 0 0 1 2.908.031q1.47.089 2.84.335 1.37.225 2.573.566 1.224.319 2.175.761l-.164 8.192q-1.735-.98-3.317-1.536a15.6 15.6 0 0 0-2.952-.803 12 12 0 0 0-2.593-.156q-2.21.125-3.895 1.188-1.686 1.043-2.588 3.009-.901 1.968-.742 4.801.098 1.739.702 3.298a8.1 8.1 0 0 0 1.701 2.683q1.12 1.143 2.748 1.762 1.628.597 3.774.477a15 15 0 0 0 1.925-.238 15 15 0 0 0 1.971-.563 11 11 0 0 0 1.97-.95 16 16 0 0 0 2.009-1.427l.882 8.026q-.897.524-2.014.953t-2.372.715a25 25 0 0 1-2.556.488q-1.326.182-2.656.257m31.053-2.37a321 321 0 0 0-2.223-3.536 422 422 0 0 1-2.037-3.288l-3.355-5.302-1.911.107-.386-6.869 1.782-.1 2.563-4.58a411 411 0 0 0 1.821-3.246 319 319 0 0 0 2.112-3.801l10.046-.565a1746 1746 0 0 0-3.21 4.961l-3.168 4.937-4.038 6.321-.412-3.896 5.308 7.476q1.236 1.696 2.64 3.684t2.736 3.852a255 255 0 0 1 2.293 3.252zm-17.023.957-.264-4.701-.292-5.195-.587-10.454-.303-5.388-.274-4.873 8.823-.496.274 4.873.302 5.388.588 10.454.292 5.195.264 4.701zm37.084-2.084 1.298-5.263q.683-2.794 1.319-5.264l2.65-10.7q.719-2.927 1.299-5.241.581-2.315 1.159-4.674l11.313-.635a724 724 0 0 1 1.702 4.62q.836 2.236 1.851 4.956l3.811 10.338a659 659 0 0 1 1.903 5.126q.988 2.636 1.876 5.041l-9.144.514a996 996 0 0 0-1.425-4.658 241 241 0 0 0-1.394-4.508l-4.196-13.74-.623.035-2.704 13.955a1281 1281 0 0 1-1.851 9.601zm8.01-6.135.62-6.603 12.644-.71 1.162 6.502zm25.3 4.263-.264-4.701-.292-5.195-.587-10.454-.303-5.388-.274-4.873 7.642-.429 3.676 4.875a853 853 0 0 1 3.42 4.524l4.396 5.804.622-.035-.311-5.538-.303-5.388-.273-4.873 8.264-.464.274 4.872.303 5.388.587 10.454.292 5.195.264 4.701-7.556.425a3059 3059 0 0 0-3.369-4.397 2789 2789 0 0 1-3.746-4.958l-4.485-5.864-.601.034.332 5.925.292 5.195.265 4.701zm47.391-2.039q-3.778.213-6.889-.732-3.089-.946-5.353-2.908t-3.565-4.817q-1.302-2.856-1.506-6.483-.258-4.594 1.384-8.326 1.642-3.731 5.068-6.012 3.423-2.304 8.532-2.59a22 22 0 0 1 2.909.03q1.47.09 2.84.336 1.369.225 2.573.566a13 13 0 0 1 2.174.761l-.164 8.192q-1.734-.98-3.316-1.537a15.7 15.7 0 0 0-2.953-.803 12 12 0 0 0-2.592-.156q-2.211.125-3.896 1.188-1.686 1.042-2.587 3.01-.902 1.966-.742 4.801a10.7 10.7 0 0 0 .702 3.298 8.1 8.1 0 0 0 1.701 2.682q1.119 1.143 2.748 1.762 1.626.598 3.773.477.945-.053 1.925-.237.98-.206 1.971-.563a11 11 0 0 0 1.971-.951 16 16 0 0 0 2.008-1.426l.882 8.026q-.897.524-2.014.953t-2.371.714q-1.232.306-2.557.488-1.324.183-2.656.257m29.156-1.638q-4.27.24-7.434-.853-3.163-1.114-5.263-3.236a14.8 14.8 0 0 1-3.185-4.946 19 19 0 0 1-1.282-5.936q-.25-4.464 1.284-8.19 1.557-3.728 4.978-6.072 3.442-2.347 8.895-2.654 4.143-.233 7.261.841t5.238 3.151 3.27 4.92 1.336 6.148q.258 4.594-1.343 8.302-1.601 3.686-5.048 5.968-3.447 2.262-8.707 2.557m-.511-7.185q1.696-.096 2.924-.854a6.5 6.5 0 0 0 2.04-2.009 8.7 8.7 0 0 0 1.153-2.864q.361-1.614.261-3.396-.103-1.846-.687-3.407-.562-1.583-1.53-2.713a6.2 6.2 0 0 0-2.252-1.747q-1.303-.594-2.892-.505-1.653.093-2.902.852a6.2 6.2 0 0 0-2.064 1.989q-.812 1.252-1.194 2.888a11.9 11.9 0 0 0-.282 3.419q.1 1.78.641 3.345a9.3 9.3 0 0 0 1.466 2.717 6.4 6.4 0 0 0 2.274 1.767q1.348.613 3.044.518m20.247 5.451-.264-4.701-.292-5.195-.589-10.475-.302-5.367-.273-4.872 3.541-.199 4.401-.248 4.594-.258q3.885-.218 6.657.444 2.772.663 4.323 2.578 1.55 1.916 1.748 5.436.154 2.748-.825 4.87-.957 2.121-3.189 3.41-2.232 1.287-5.859 1.492l3.377-3.119 4.149 5.99q.96 1.39 2.04 2.965 1.1 1.575 2.133 3.089 1.031 1.492 1.827 2.632l-9.981.561a380 380 0 0 0-2.053-3.179 425 425 0 0 0-1.911-2.972l-5.034-7.965 5.415 3.249-7.169.403-.32-5.689 4.722-.265q1.16-.066 2.001-.414a2.46 2.46 0 0 0 1.247-1.19q.426-.842.344-2.302-.055-.987-.349-1.617a2.65 2.65 0 0 0-.79-1.032 2.8 2.8 0 0 0-1.106-.519 4.6 4.6 0 0 0-1.276-.101l-9.939.559 6.055-5.681.276 4.916.301 5.345.507 9.037.292 5.195.265 4.701zm30.187-1.696-.265-4.701-.292-5.195-.588-10.475-.302-5.367-.274-4.873 21.08-1.184.397 7.062-9.123.513-6.955.391 3.353-5.852.274 4.873.303 5.388.427 7.599.292 5.194.265 4.723-3.43-5.471 6.998-.393 8.759-.492.396 7.062zm5.949-12.544-.361-6.418 5.409-.304 4.68-.263 3.778-.213.361 6.419-3.864.217-4.615.259zM990.468 171.288l-4.486.252-3.821.214-3.134.176-.264-4.701-.292-5.194-.589-10.476-.301-5.366-.274-4.873 6.139-.345 6.891-.387q3.413-.192 5.674.197 2.26.369 3.6 1.219c.909.567 1.569 1.262 1.969 2.086.41.824.64 1.752.7 2.782q.105 1.953-.57 3.434a6.6 6.6 0 0 1-1.902 2.476 8.1 8.1 0 0 1-2.827 1.429l.035.623q2.001.339 3.464 1.14a5.77 5.77 0 0 1 2.32 2.238q.84 1.418.96 3.629.12 1.974-.42 3.62c-.35 1.082-1.02 2.031-1.99 2.846-.98.816-2.345 1.482-4.111 1.997q-2.649.751-6.771.984m-3.099-6.114 3.584-.202q1.245-.07 2.063-.46.84-.392 1.208-1.123.39-.732.33-1.784-.086-1.525-1.032-2.268-.946-.744-2.728-.644l-5.881.331-.32-5.689 5.409-.304q1.139-.063 1.89-.472.751-.43 1.099-1.138.369-.732.313-1.719-.082-1.46-.901-2.232-.797-.773-2.407-.683l-3.649.205.153 2.726.183 3.263.374 6.655.17 3.026zm20.521 5.134c-.09-1.617-.18-3.184-.26-4.701-.09-1.531-.18-3.263-.29-5.195l-.59-10.454q-.165-3.025-.3-5.388c-.09-1.588-.18-3.212-.28-4.872l8.87-.499q.135 2.49.27 4.873c.09 1.574.19 3.37.31 5.388l.5 9.016c.11 1.932.21 3.664.29 5.195q.135 2.276.27 4.701l-3.36-6.056 6.21-.349 3.67-.206 2.94-.166 2.79-.156.43 7.663zm23.34-1.311c.4-1.659.84-3.414 1.29-5.262q.69-2.796 1.32-5.264l2.65-10.701c.48-1.95.91-3.697 1.3-5.241s.78-3.101 1.16-4.673l11.31-.636q.885 2.383 1.71 4.62c.55 1.491 1.17 3.143 1.85 4.957l3.81 10.337c.62 1.659 1.26 3.368 1.9 5.126.66 1.757 1.28 3.438 1.88 5.041l-9.15.514c-.46-1.51-.93-3.063-1.42-4.657-.48-1.596-.94-3.099-1.4-4.509l-4.19-13.74-.63.035-2.7 13.956c-.29 1.523-.59 3.12-.91 4.789-.33 1.669-.64 3.272-.94 4.811zm8.01-6.135.62-6.603 12.64-.71 1.16 6.502zm39.27 4.102c-2.52.142-4.81-.102-6.89-.732-2.06-.631-3.84-1.6-5.35-2.908q-2.265-1.962-3.57-4.817c-.86-1.904-1.37-4.065-1.5-6.483q-.255-4.594 1.38-8.326 1.65-3.731 5.07-6.012c2.28-1.535 5.13-2.399 8.53-2.59q1.47-.082 2.91.03c.98.06 1.93.172 2.84.336.91.15 1.77.338 2.57.566.82.212 1.54.466 2.18.761l-.17 8.192a21 21 0 0 0-3.31-1.537 16 16 0 0 0-2.95-.803c-.93-.149-1.8-.201-2.6-.156-1.47.083-2.77.479-3.89 1.188-1.13.695-1.99 1.698-2.59 3.01s-.85 2.912-.74 4.801c.06 1.159.3 2.258.7 3.298a8.1 8.1 0 0 0 1.7 2.682c.75.762 1.66 1.349 2.75 1.762 1.08.399 2.34.558 3.77.477.63-.035 1.27-.114 1.93-.237.65-.137 1.31-.325 1.97-.563s1.32-.555 1.97-.951q1.005-.595 2.01-1.426l.88 8.026q-.9.524-2.01.953c-.75.285-1.54.524-2.38.714q-1.23.306-2.55.488c-.89.122-1.77.207-2.66.257m31.05-2.369q-1.155-1.873-2.22-3.536c-.69-1.109-1.37-2.205-2.03-3.288l-3.36-5.302-1.91.107-.39-6.869 1.78-.1 2.57-4.58c.61-1.083 1.22-2.165 1.82-3.247.61-1.082 1.32-2.349 2.11-3.801l10.05-.564a673 673 0 0 0-3.21 4.961c-1.05 1.623-2.1 3.269-3.17 4.937l-4.04 6.321-.41-3.896 5.31 7.475q1.23 1.696 2.64 3.685c.93 1.325 1.85 2.609 2.73 3.851.89 1.242 1.66 2.326 2.3 3.252zm-17.02.956c-.09-1.617-.18-3.184-.26-4.701-.09-1.531-.19-3.263-.29-5.194l-.59-10.454c-.11-2.018-.22-3.814-.3-5.388-.09-1.589-.18-3.213-.28-4.873l8.82-.496c.1 1.66.19 3.284.28 4.873q.135 2.361.3 5.388l.59 10.454c.11 1.932.2 3.663.29 5.195.09 1.516.17 3.084.26 4.701zm37.09-2.084q.615-2.488 1.29-5.262.69-2.795 1.32-5.264l2.65-10.7c.48-1.951.92-3.698 1.3-5.242.39-1.543.78-3.101 1.16-4.673l11.31-.636c.6 1.589 1.16 3.129 1.71 4.621.55 1.49 1.17 3.142 1.85 4.956l3.81 10.337c.62 1.659 1.26 3.368 1.9 5.126.66 1.758 1.28 3.438 1.88 5.041l-9.15.514c-.46-1.51-.93-3.062-1.42-4.657-.48-1.595-.94-3.098-1.4-4.508l-4.19-13.74-.62.035-2.71 13.955c-.29 1.524-.59 3.12-.91 4.789-.33 1.669-.64 3.273-.94 4.811zm8.01-6.135.62-6.602 12.64-.711 1.16 6.503zm25.3 4.264q-.135-2.427-.27-4.701c-.08-1.532-.18-3.263-.29-5.195l-.59-10.454q-.165-3.027-.3-5.388-.135-2.383-.27-4.873l7.64-.43c1.32 1.75 2.54 3.375 3.67 4.876q1.71 2.23 3.42 4.524l4.4 5.804.62-.035-.31-5.539q-.165-3.025-.3-5.388c-.09-1.588-.18-3.212-.28-4.872l8.27-.465q.135 2.49.27 4.873c.09 1.574.19 3.37.31 5.388l.58 10.454q.165 2.898.3 5.195c.08 1.517.17 3.084.26 4.701l-7.56.424c-1.08-1.417-2.2-2.883-3.37-4.397-1.14-1.515-2.39-3.167-3.74-4.958l-4.49-5.863-.6.034.33 5.924q.165 2.898.3 5.195c.08 1.517.17 3.084.26 4.701zm47.39-2.039c-2.52.141-4.82-.103-6.89-.733-2.06-.63-3.85-1.6-5.35-2.907q-2.265-1.962-3.57-4.817c-.87-1.904-1.37-4.065-1.51-6.484-.17-3.062.29-5.837 1.39-8.325q1.635-3.732 5.07-6.013c2.28-1.535 5.12-2.398 8.53-2.59a22 22 0 0 1 2.91.031c.98.06 1.92.171 2.84.335.91.15 1.77.339 2.57.566.82.213 1.54.467 2.17.761l-.16 8.192c-1.16-.653-2.26-1.165-3.32-1.536a15.5 15.5 0 0 0-2.95-.803 12 12 0 0 0-2.59-.156c-1.48.083-2.77.479-3.9 1.188q-1.68 1.042-2.58 3.009c-.61 1.312-.85 2.912-.75 4.801.07 1.159.3 2.259.71 3.298.4 1.026.96 1.92 1.7 2.683s1.66 1.349 2.74 1.762q1.635.597 3.78.477.945-.054 1.92-.238c.66-.137 1.31-.324 1.97-.563.67-.238 1.32-.555 1.97-.95q1.005-.594 2.01-1.427l.89 8.026c-.6.35-1.27.667-2.02.953q-1.11.429-2.37.715c-.82.204-1.67.367-2.56.488-.88.121-1.77.207-2.65.257m29.15-1.639c-2.84.161-5.32-.124-7.43-.852-2.11-.743-3.86-1.822-5.26-3.236a14.9 14.9 0 0 1-3.19-4.946c-.74-1.868-1.16-3.847-1.28-5.936-.17-2.977.26-5.707 1.28-8.191q1.56-3.726 4.98-6.072c2.3-1.564 5.26-2.449 8.9-2.653q4.14-.233 7.26.841c2.08.716 3.82 1.766 5.23 3.151a14.1 14.1 0 0 1 3.27 4.92c.77 1.895 1.22 3.944 1.34 6.148.17 3.062-.27 5.83-1.34 8.301-1.07 2.458-2.75 4.447-5.05 5.969-2.3 1.507-5.2 2.359-8.71 2.556m-.51-7.185c1.13-.063 2.11-.348 2.93-.853a6.6 6.6 0 0 0 2.04-2.01c.54-.848.92-1.803 1.15-2.864.24-1.076.33-2.208.26-3.395q-.105-1.847-.69-3.407-.555-1.584-1.53-2.714a6.2 6.2 0 0 0-2.25-1.747c-.87-.396-1.83-.564-2.89-.505-1.1.062-2.07.346-2.9.853a6.2 6.2 0 0 0-2.07 1.989c-.54.834-.94 1.797-1.19 2.888-.26 1.077-.35 2.216-.28 3.418.06 1.188.28 2.303.64 3.345a9.5 9.5 0 0 0 1.46 2.717 6.4 6.4 0 0 0 2.28 1.767c.9.409 1.91.582 3.04.518m20.25 5.452q-.135-2.425-.27-4.701c-.08-1.531-.18-3.263-.29-5.195l-.59-10.475q-.165-3.006-.3-5.367-.135-2.382-.27-4.873l3.54-.199 4.4-.247 4.59-.258c2.6-.146 4.81.002 6.66.444q2.775.663 4.32 2.578c1.04 1.277 1.62 3.089 1.75 5.436.11 1.832-.17 3.455-.82 4.87-.64 1.414-1.7 2.55-3.19 3.409s-3.44 1.356-5.86 1.492l3.38-3.118 4.15 5.99q.96 1.389 2.04 2.965 1.095 1.575 2.13 3.088 1.035 1.493 1.83 2.633l-9.99.561c-.7-1.109-1.39-2.169-2.05-3.18-.64-1.012-1.28-2.002-1.91-2.972l-5.03-7.964 5.41 3.248-7.17.403-.32-5.688 4.73-.266c.77-.043 1.44-.181 2-.414.56-.246.97-.643 1.24-1.189.29-.562.4-1.329.35-2.302-.04-.659-.16-1.198-.35-1.617-.2-.434-.46-.778-.79-1.033q-.495-.381-1.11-.519c-.4-.092-.83-.125-1.27-.1l-9.94.558 6.05-5.681c.1 1.689.19 3.328.28 4.916q.135 2.361.3 5.345l.51 9.038c.11 1.931.2 3.663.29 5.194.08 1.517.17 3.084.26 4.701zm30.19-1.696c-.1-1.618-.18-3.185-.27-4.701-.08-1.532-.18-3.263-.29-5.195l-.59-10.476q-.165-3.005-.3-5.366-.135-2.383-.27-4.873l21.08-1.185.39 7.063-4.06.228-5.06.284-6.96.391 3.36-5.852q.135 2.49.27 4.873.135 2.361.3 5.388l.43 7.599c.11 1.932.21 3.664.29 5.195q.135 2.297.27 4.722l-3.43-5.47 7-.393 4.59-.259 4.16-.234.4 7.063zm5.94-12.544-.36-6.419 5.41-.304 4.68-.263 3.78-.212.36 6.418-3.86.217-4.62.26zM1415.26 152.189l-4.49.252-3.82.215-3.13.176q-.135-2.425-.27-4.701c-.08-1.531-.18-3.263-.29-5.195l-.59-10.475q-.165-3.006-.3-5.367-.135-2.382-.27-4.873l6.14-.345 6.89-.387q3.405-.192 5.67.198 2.265.369 3.6 1.219c.91.566 1.57 1.262 1.97 2.086.41.824.64 1.751.7 2.782q.105 1.953-.57 3.434a6.6 6.6 0 0 1-1.9 2.475 8.2 8.2 0 0 1-2.83 1.43l.04.622c1.33.227 2.49.607 3.46 1.141a5.77 5.77 0 0 1 2.32 2.238q.84 1.417.96 3.628.12 1.976-.42 3.62c-.35 1.082-1.02 2.031-1.99 2.847-.98.816-2.34 1.481-4.11 1.997-1.77.501-4.02.829-6.77.983m-3.1-6.114 3.58-.201q1.245-.07 2.07-.461.84-.391 1.2-1.123.39-.732.33-1.784c-.05-1.016-.4-1.772-1.03-2.268q-.945-.743-2.73-.643l-5.88.331-.32-5.689 5.41-.304q1.14-.064 1.89-.472c.5-.287.87-.666 1.1-1.139.25-.487.35-1.06.31-1.718q-.075-1.461-.9-2.232-.795-.774-2.4-.683l-3.65.205q.075 1.309.15 2.726.075 1.395.18 3.263l.38 6.654c.06 1.159.12 2.168.17 3.027s.09 1.696.14 2.511m20.52 5.135c-.09-1.617-.18-3.184-.26-4.701-.09-1.531-.18-3.263-.29-5.195l-.59-10.454q-.165-3.027-.3-5.388c-.09-1.588-.18-3.213-.28-4.873l8.87-.498q.135 2.49.27 4.873c.09 1.574.19 3.37.31 5.388l.5 9.016c.11 1.932.21 3.663.29 5.194q.135 2.276.27 4.701l-3.36-6.056 6.21-.348 6.61-.372 2.79-.157.43 7.664zm23.34-1.311c.4-1.66.84-3.414 1.29-5.263q.69-2.795 1.32-5.264l2.65-10.7c.48-1.951.91-3.698 1.3-5.241.39-1.544.78-3.102 1.16-4.674l11.31-.635q.885 2.383 1.71 4.62c.55 1.49 1.17 3.142 1.85 4.956l3.81 10.338c.62 1.659 1.26 3.367 1.9 5.126.66 1.757 1.28 3.437 1.88 5.041l-9.15.514c-.46-1.511-.93-3.063-1.42-4.658-.48-1.595-.94-3.098-1.4-4.508l-4.19-13.74-.63.035-2.7 13.955c-.29 1.524-.59 3.12-.91 4.789-.33 1.669-.64 3.273-.94 4.812zm8.01-6.135.62-6.603 12.64-.711 1.16 6.503zm39.27 4.102c-2.52.141-4.81-.103-6.89-.733-2.06-.63-3.84-1.6-5.35-2.907q-2.265-1.962-3.57-4.817c-.86-1.904-1.37-4.065-1.5-6.484q-.255-4.593 1.38-8.325 1.65-3.732 5.07-6.013c2.28-1.535 5.13-2.398 8.53-2.59q1.47-.081 2.91.031c.98.06 1.93.171 2.84.335.91.15 1.77.339 2.57.567.82.212 1.54.466 2.18.76l-.17 8.192a21 21 0 0 0-3.31-1.536 15.7 15.7 0 0 0-2.95-.803c-.93-.149-1.8-.201-2.6-.156-1.47.083-2.77.479-3.89 1.188-1.13.695-1.99 1.698-2.59 3.009-.6 1.312-.85 2.912-.74 4.801.06 1.159.3 2.259.7 3.298.4 1.026.97 1.92 1.7 2.683.75.762 1.66 1.349 2.75 1.762 1.08.398 2.34.557 3.77.477.63-.036 1.27-.115 1.93-.238.65-.137 1.31-.324 1.97-.563s1.32-.555 1.97-.95q1.005-.594 2.01-1.427l.88 8.026q-.9.525-2.01.953c-.75.286-1.54.524-2.38.715q-1.23.306-2.55.488c-.89.121-1.77.207-2.66.257m31.05-2.37a246 246 0 0 0-2.22-3.535c-.69-1.11-1.37-2.206-2.03-3.288l-3.36-5.303-1.91.107-.39-6.869 1.78-.1 2.57-4.58c.61-1.082 1.22-2.164 1.82-3.246.61-1.083 1.32-2.35 2.11-3.801l10.05-.565a695 695 0 0 0-3.21 4.961c-1.05 1.624-2.1 3.269-3.17 4.937l-4.04 6.321-.41-3.896 5.31 7.476a442 442 0 0 1 2.64 3.684c.93 1.326 1.85 2.61 2.73 3.852.89 1.242 1.66 2.326 2.3 3.252zm-17.02.957c-.09-1.617-.18-3.184-.26-4.701-.09-1.531-.19-3.263-.29-5.195l-.59-10.454c-.11-2.018-.22-3.814-.3-5.388-.09-1.588-.18-3.213-.28-4.873l8.82-.495c.1 1.66.19 3.284.28 4.872q.135 2.363.3 5.388l.59 10.454c.11 1.932.2 3.664.29 5.195.09 1.517.17 3.084.26 4.701zm37.09-2.084q.615-2.489 1.29-5.263.69-2.794 1.32-5.263l2.65-10.701c.48-1.951.92-3.698 1.3-5.241.39-1.544.78-3.101 1.16-4.673l11.31-.636c.6 1.589 1.16 3.129 1.71 4.62s1.17 3.143 1.85 4.957l3.81 10.337c.62 1.659 1.26 3.368 1.9 5.126.66 1.757 1.28 3.438 1.88 5.041l-9.15.514c-.46-1.51-.93-3.063-1.42-4.657-.48-1.596-.94-3.099-1.4-4.509l-4.19-13.74-.62.035-2.71 13.956c-.29 1.523-.59 3.119-.91 4.789-.33 1.669-.64 3.272-.94 4.811zm8.01-6.135.62-6.603 12.64-.71 1.16 6.502zm25.3 4.263q-.135-2.425-.27-4.701c-.08-1.531-.18-3.263-.29-5.195l-.59-10.454q-.165-3.027-.3-5.388-.135-2.382-.27-4.873l7.64-.429c1.32 1.749 2.54 3.374 3.67 4.875q1.71 2.23 3.42 4.524l4.4 5.804.62-.035-.31-5.538q-.165-3.027-.3-5.388c-.09-1.589-.18-3.213-.28-4.873l8.27-.464q.135 2.49.27 4.873c.09 1.574.19 3.37.31 5.388l.58 10.454q.165 2.898.3 5.194c.08 1.517.17 3.084.26 4.701l-7.56.425c-1.08-1.418-2.2-2.883-3.37-4.397-1.14-1.515-2.39-3.168-3.74-4.958l-4.49-5.864-.6.034.33 5.925q.165 2.898.3 5.195c.08 1.517.17 3.084.26 4.701zm47.39-2.038c-2.52.141-4.82-.103-6.89-.733-2.06-.631-3.85-1.6-5.35-2.908q-2.265-1.961-3.57-4.817c-.87-1.904-1.37-4.065-1.51-6.483-.17-3.063.29-5.838 1.39-8.325q1.635-3.732 5.07-6.013c2.28-1.535 5.12-2.399 8.53-2.59a22 22 0 0 1 2.91.03c.98.06 1.92.172 2.84.336.91.15 1.77.338 2.57.566.82.213 1.54.466 2.17.761l-.16 8.192c-1.16-.653-2.26-1.165-3.32-1.536-1.04-.387-2.02-.655-2.95-.804-.93-.148-1.79-.2-2.59-.155-1.48.082-2.77.478-3.9 1.188q-1.68 1.042-2.58 3.009c-.61 1.311-.85 2.912-.75 4.801.07 1.159.3 2.258.71 3.298a8.1 8.1 0 0 0 1.7 2.682c.74.762 1.66 1.35 2.74 1.762q1.635.598 3.78.477a15 15 0 0 0 1.92-.237c.66-.137 1.31-.325 1.97-.563a10.6 10.6 0 0 0 1.97-.951q1.005-.594 2.01-1.426l.89 8.026c-.6.349-1.27.667-2.02.953q-1.11.429-2.37.714c-.82.204-1.67.367-2.56.489-.88.121-1.77.207-2.65.257m29.15-1.639c-2.84.16-5.32-.124-7.43-.853-2.11-.743-3.86-1.821-5.26-3.235a14.9 14.9 0 0 1-3.19-4.947c-.74-1.867-1.16-3.846-1.28-5.935-.17-2.977.26-5.707 1.28-8.191q1.56-3.727 4.98-6.072c2.3-1.565 5.26-2.449 8.9-2.654q4.14-.232 7.26.841c2.08.716 3.82 1.767 5.23 3.151a14.1 14.1 0 0 1 3.27 4.92c.77 1.895 1.22 3.945 1.34 6.149.17 3.062-.27 5.829-1.34 8.301-1.07 2.457-2.75 4.447-5.05 5.969-2.3 1.507-5.2 2.359-8.71 2.556m-.51-7.185c1.13-.064 2.11-.348 2.93-.853a6.65 6.65 0 0 0 2.04-2.01c.54-.849.92-1.803 1.15-2.864.24-1.076.33-2.208.26-3.396q-.105-1.846-.69-3.407-.555-1.583-1.53-2.713a6.2 6.2 0 0 0-2.25-1.747c-.87-.396-1.83-.564-2.89-.505-1.1.062-2.07.346-2.9.852a6.2 6.2 0 0 0-2.07 1.99c-.54.834-.94 1.797-1.19 2.888-.26 1.076-.35 2.216-.28 3.418.06 1.188.28 2.303.64 3.345a9.5 9.5 0 0 0 1.46 2.717 6.44 6.44 0 0 0 2.28 1.767c.9.409 1.91.581 3.04.518m20.25 5.452q-.135-2.427-.27-4.702c-.08-1.531-.18-3.262-.29-5.194l-.59-10.476q-.165-3.005-.3-5.366-.135-2.383-.27-4.873l3.54-.199 4.4-.247 4.59-.259c2.6-.145 4.81.003 6.66.445q2.775.662 4.32 2.578c1.04 1.277 1.62 3.089 1.75 5.436.11 1.831-.17 3.455-.82 4.869-.64 1.415-1.7 2.551-3.19 3.41s-3.44 1.356-5.86 1.492l3.38-3.119 4.15 5.991q.96 1.389 2.04 2.964 1.095 1.575 2.13 3.089 1.035 1.492 1.83 2.632l-9.99.561c-.7-1.109-1.39-2.168-2.05-3.179-.64-1.012-1.28-2.003-1.91-2.972l-5.03-7.965 5.41 3.249-7.17.403-.32-5.689 4.73-.265c.77-.043 1.44-.181 2-.414.56-.247.97-.643 1.24-1.19.29-.561.4-1.329.35-2.302-.04-.658-.16-1.197-.35-1.617-.2-.434-.46-.778-.79-1.032q-.495-.381-1.11-.519c-.4-.092-.83-.126-1.27-.101l-9.94.559 6.05-5.681c.1 1.689.19 3.327.28 4.916q.135 2.361.3 5.345l.51 9.037c.11 1.932.2 3.664.29 5.195.08 1.517.17 3.084.26 4.701zm30.19-1.697c-.1-1.617-.18-3.184-.27-4.701-.08-1.531-.18-3.263-.29-5.195l-.59-10.475q-.165-3.006-.3-5.367-.135-2.382-.27-4.873l21.08-1.184.39 7.062-4.06.228-5.06.285-6.96.391 3.36-5.852q.135 2.49.27 4.873.135 2.361.3 5.388l.43 7.599c.11 1.932.21 3.663.29 5.195q.135 2.296.27 4.722l-3.43-5.471 7-.393 4.59-.258 4.16-.234.4 7.062zm5.94-12.544-.36-6.418 5.41-.304 4.68-.263 3.78-.212.36 6.418-3.86.217-4.62.259zM1840.05 133.091l-4.49.252-3.82.215-3.13.176q-.135-2.425-.27-4.701c-.08-1.532-.18-3.263-.29-5.195l-.59-10.476q-.165-3.005-.3-5.366-.135-2.383-.27-4.873l6.14-.345 6.89-.387q3.405-.192 5.67.198 2.265.367 3.6 1.219c.91.566 1.57 1.261 1.97 2.085.41.825.64 1.752.7 2.782.07 1.303-.12 2.447-.56 3.434a6.74 6.74 0 0 1-1.91 2.476 8.2 8.2 0 0 1-2.83 1.429l.04.623c1.33.226 2.49.607 3.46 1.14a5.8 5.8 0 0 1 2.33 2.238c.55.945.87 2.155.95 3.629q.12 1.975-.42 3.62c-.35 1.082-1.02 2.031-1.99 2.847q-1.455 1.223-4.11 1.996c-1.77.501-4.02.829-6.77.984m-3.1-6.114 3.58-.201q1.245-.07 2.07-.461.84-.391 1.2-1.123c.26-.488.37-1.083.34-1.784-.06-1.016-.41-1.772-1.04-2.268s-1.54-.71-2.72-.643l-5.89.33-.32-5.688 5.41-.304q1.14-.064 1.89-.473c.5-.286.87-.666 1.1-1.138.25-.488.35-1.061.31-1.719q-.075-1.46-.9-2.232-.795-.773-2.4-.683l-3.65.205q.075 1.31.15 2.726.075 1.396.18 3.263l.38 6.655c.06 1.159.12 2.168.17 3.026.05.859.09 1.696.14 2.512m20.52 5.134c-.09-1.617-.17-3.184-.26-4.701-.09-1.531-.18-3.262-.29-5.194l-.59-10.454q-.165-3.027-.3-5.388c-.09-1.589-.18-3.213-.28-4.873l8.87-.498q.135 2.49.27 4.872c.09 1.575.19 3.371.31 5.388l.5 9.016q.165 2.898.3 5.195c.08 1.517.17 3.084.26 4.701l-3.36-6.056 6.21-.349 3.67-.206 2.94-.165 2.79-.157.43 7.663zm23.34-1.311q.615-2.488 1.29-5.262.69-2.795 1.32-5.264l2.65-10.701c.48-1.95.92-3.697 1.3-5.241.39-1.543.78-3.101 1.16-4.673l11.31-.636c.6 1.589 1.16 3.129 1.71 4.62s1.17 3.143 1.85 4.957l3.81 10.337c.62 1.659 1.26 3.368 1.9 5.126a844 844 0 0 1 1.88 5.041l-9.15.514c-.45-1.51-.93-3.063-1.42-4.657-.48-1.596-.94-3.098-1.4-4.509l-4.19-13.739-.62.035-2.71 13.955c-.29 1.523-.59 3.12-.91 4.789-.33 1.669-.64 3.273-.94 4.811zm8.01-6.135.62-6.602 12.64-.711 1.16 6.503zm39.27 4.103c-2.52.141-4.81-.103-6.89-.733-2.06-.631-3.84-1.6-5.35-2.908s-2.7-2.913-3.56-4.817c-.87-1.904-1.37-4.065-1.51-6.483q-.255-4.595 1.38-8.325 1.65-3.732 5.07-6.013c2.28-1.535 5.13-2.399 8.53-2.59q1.47-.082 2.91.03c.98.06 1.93.172 2.84.336.92.15 1.77.338 2.58.566.81.213 1.54.466 2.17.76l-.16 8.193a21 21 0 0 0-3.32-1.536 15.7 15.7 0 0 0-2.95-.804c-.93-.148-1.79-.2-2.6-.155-1.47.083-2.77.478-3.89 1.188-1.13.694-1.99 1.698-2.59 3.009s-.85 2.912-.74 4.801c.06 1.159.3 2.258.7 3.298a8.1 8.1 0 0 0 1.7 2.682c.75.762 1.66 1.35 2.75 1.762 1.08.399 2.34.558 3.77.477.63-.035 1.28-.114 1.93-.237.65-.137 1.31-.325 1.97-.563s1.32-.555 1.97-.95q1.005-.595 2.01-1.427l.88 8.026q-.9.524-2.01.953-1.125.429-2.37.714c-.83.204-1.68.367-2.56.489-.88.121-1.77.207-2.66.257m31.06-2.37c-.78-1.249-1.52-2.427-2.23-3.536-.69-1.109-1.37-2.205-2.03-3.288l-3.36-5.302-1.91.107-.39-6.869 1.79-.1 2.56-4.58c.61-1.083 1.22-2.165 1.82-3.246.61-1.083 1.32-2.35 2.11-3.802l10.05-.564a675 675 0 0 0-3.21 4.961c-1.04 1.623-2.1 3.269-3.17 4.937l-4.04 6.321-.41-3.896 5.31 7.475q1.23 1.696 2.64 3.685c.93 1.326 1.85 2.609 2.73 3.852.89 1.242 1.66 2.326 2.3 3.252zm-17.03.957c-.09-1.617-.18-3.185-.26-4.701-.09-1.532-.18-3.263-.29-5.195l-.59-10.454q-.165-3.027-.3-5.388c-.09-1.589-.18-3.213-.28-4.873l8.83-.496q.135 2.49.27 4.873.135 2.361.3 5.388l.59 10.454c.11 1.932.21 3.663.29 5.195q.135 2.275.27 4.701zm37.09-2.084q.615-2.49 1.29-5.263.69-2.795 1.32-5.264l2.65-10.7c.48-1.951.92-3.698 1.3-5.241.39-1.544.78-3.102 1.16-4.674l11.31-.636c.6 1.59 1.16 3.13 1.71 4.62s1.17 3.143 1.85 4.957l3.81 10.338c.62 1.659 1.26 3.367 1.9 5.125.66 1.758 1.29 3.438 1.88 5.042l-9.15.514c-.45-1.511-.93-3.063-1.42-4.658-.48-1.595-.94-3.098-1.4-4.508l-4.19-13.74-.62.035-2.71 13.955c-.29 1.524-.59 3.12-.91 4.789-.33 1.669-.64 3.273-.94 4.812zm8.01-6.135.62-6.603 12.64-.711 1.16 6.503zm25.3 4.263q-.135-2.425-.27-4.701c-.08-1.532-.18-3.263-.29-5.195l-.59-10.454a2056 2056 0 0 0-.3-5.388q-.135-2.383-.27-4.873l7.64-.43c1.32 1.75 2.54 3.375 3.68 4.876 1.13 1.487 2.27 2.995 3.41 4.524l4.4 5.804.62-.035-.31-5.538q-.165-3.027-.3-5.388-.135-2.383-.27-4.873l8.26-.465q.135 2.49.27 4.873c.09 1.574.19 3.37.31 5.388l.58 10.454q.165 2.898.3 5.195c.08 1.517.17 3.084.26 4.701l-7.56.425c-1.08-1.418-2.2-2.884-3.37-4.398-1.14-1.514-2.39-3.167-3.74-4.957l-4.49-5.864-.6.034.34 5.924c.1 1.932.2 3.664.29 5.195.08 1.517.17 3.084.26 4.701zm47.39-2.039c-2.52.142-4.82-.103-6.89-.733-2.06-.63-3.84-1.6-5.35-2.907q-2.265-1.962-3.57-4.817t-1.5-6.484q-.27-4.593 1.38-8.325 1.635-3.731 5.07-6.013c2.28-1.535 5.12-2.398 8.53-2.59q1.455-.081 2.91.03c.98.06 1.92.173 2.84.337.91.15 1.77.338 2.57.566.82.212 1.54.466 2.18.76l-.17 8.192c-1.16-.652-2.26-1.165-3.32-1.536-1.04-.386-2.02-.654-2.95-.803-.92-.149-1.79-.2-2.59-.156q-2.205.124-3.9 1.188-1.68 1.042-2.58 3.01-.9 1.966-.75 4.8c.07 1.159.3 2.259.71 3.299a8.1 8.1 0 0 0 1.7 2.682c.74.762 1.66 1.349 2.75 1.762 1.08.398 2.34.557 3.77.477q.945-.053 1.92-.237c.66-.138 1.31-.325 1.98-.563a11.2 11.2 0 0 0 1.97-.951 16.4 16.4 0 0 0 2-1.426l.89 8.025c-.6.35-1.27.667-2.02.953q-1.11.429-2.37.715c-.82.204-1.67.367-2.56.488-.88.122-1.76.207-2.65.257m29.15-1.638c-2.84.16-5.32-.125-7.43-.853-2.11-.743-3.86-1.821-5.26-3.236a14.9 14.9 0 0 1-3.19-4.946c-.74-1.868-1.16-3.847-1.28-5.936-.17-2.977.26-5.707 1.28-8.19q1.56-3.727 4.98-6.073c2.3-1.564 5.26-2.449 8.9-2.653q4.14-.233 7.26.841c2.08.716 3.82 1.766 5.24 3.151q2.115 2.078 3.27 4.92c.76 1.895 1.21 3.944 1.33 6.148.17 3.063-.27 5.83-1.34 8.301-1.07 2.458-2.75 4.447-5.05 5.969-2.3 1.507-5.2 2.36-8.71 2.557m-.51-7.185c1.13-.064 2.11-.348 2.93-.854a6.4 6.4 0 0 0 2.04-2.009c.54-.849.92-1.804 1.15-2.865.24-1.076.33-2.207.26-3.395q-.105-1.847-.69-3.407-.555-1.584-1.53-2.713a6.2 6.2 0 0 0-2.25-1.747c-.87-.397-1.83-.565-2.89-.505-1.1.062-2.07.346-2.9.852a6.2 6.2 0 0 0-2.07 1.99c-.54.834-.94 1.796-1.19 2.887-.26 1.077-.35 2.216-.28 3.418.07 1.188.28 2.303.64 3.345a9.5 9.5 0 0 0 1.46 2.717 6.4 6.4 0 0 0 2.28 1.768c.9.408 1.91.581 3.04.518m20.25 5.451c-.09-1.617-.18-3.184-.26-4.701q-.135-2.297-.3-5.195l-.58-10.475c-.12-2.004-.22-3.793-.31-5.367q-.135-2.382-.27-4.873l3.54-.199 4.4-.247 4.6-.258c2.59-.146 4.81.002 6.65.444 1.85.442 3.29 1.301 4.33 2.578q1.545 1.916 1.74 5.436c.11 1.832-.17 3.455-.82 4.87-.64 1.414-1.7 2.551-3.19 3.409-1.49.859-3.44 1.357-5.86 1.493l3.38-3.119 4.15 5.99q.96 1.389 2.04 2.965 1.095 1.575 2.13 3.089 1.035 1.492 1.83 2.632l-9.98.561c-.71-1.109-1.4-2.169-2.06-3.18-.64-1.011-1.28-2.002-1.91-2.972l-5.03-7.964 5.41 3.249-7.17.402-.32-5.688 4.73-.265c.77-.044 1.44-.182 2-.414.56-.247.97-.644 1.24-1.19.29-.562.4-1.329.35-2.302-.04-.658-.15-1.197-.35-1.617-.2-.434-.46-.778-.79-1.032a2.8 2.8 0 0 0-1.11-.52 4.5 4.5 0 0 0-1.27-.1l-9.94.558 6.05-5.68c.1 1.688.19 3.327.28 4.915q.135 2.362.3 5.346l.51 9.037c.11 1.932.2 3.663.29 5.195.08 1.516.17 3.083.26 4.701zm30.19-1.696q-.135-2.425-.27-4.701c-.08-1.532-.18-3.263-.29-5.195l-.59-10.476q-.165-3.005-.3-5.366-.135-2.383-.27-4.873l21.08-1.184.39 7.062-4.05.228-5.07.284-6.96.391 3.36-5.852q.135 2.49.27 4.873.135 2.362.3 5.388l.43 7.599c.11 1.932.21 3.664.29 5.195q.135 2.297.27 4.723l-3.43-5.471 7-.393a9297 9297 0 0 1 8.76-.492l.39 7.062zm5.95-12.544-.37-6.419 5.41-.304 8.46-.475.36 6.418-3.86.218-4.62.259z"/><defs><filter id="a" width="2555.01" height="260.707" x="-146.188" y="30.316" color-interpolation-filters="sRGB" filterUnits="userSpaceOnUse"><feFlood flood-opacity="0" result="BackgroundImageFix"/><feBlend in="SourceGraphic" in2="BackgroundImageFix" result="shape"/><feGaussianBlur result="effect1_foregroundBlur_211_116" stdDeviation="9.2"/></filter></defs></svg>